M48
; DRILL file {KiCad (6.0.4-0)} date Tuesday, 03 May 2022 at 20:12:33
; FORMAT={-:-/ absolute / inch / decimal}
; #@! TF.CreationDate,2022-05-03T20:12:33+08:00
; #@! TF.GenerationSoftware,Kicad,Pcbnew,(6.0.4-0)
; #@! TF.FileFunction,NonPlated,1,2,NPTH
FMAT,2
INCH
; #@! TA.AperFunction,NonPlated,NPTH,ComponentDrill
T1C0.0354
; #@! TA.AperFunction,NonPlated,NPTH,ComponentDrill
T2C0.0591
; #@! TA.AperFunction,NonPlated,NPTH,ComponentDrill
T3C0.0670
; #@! TA.AperFunction,NonPlated,NPTH,ComponentDrill
T4C0.1181
; #@! TA.AperFunction,NonPlated,NPTH,ComponentDrill
T5C0.1350
%
G90
G05
T1
X5.6484Y-2.7965
X5.6484Y-2.7965
X5.6484Y-2.9146
X5.6484Y-2.9146
T2
X5.3886Y-3.3555
X5.3886Y-3.4461
X5.6642Y-3.3555
X5.6642Y-3.4461
T3
X1.2636Y-1.9402
X1.2986Y-2.6086
X1.3338Y-3.2769
X1.6961Y-1.9175
X1.7311Y-2.5859
X1.7662Y-3.2543
X2.1248Y-1.3988
X2.1248Y-2.0681
X2.1248Y-2.7374
X2.5579Y-1.3988
X2.5579Y-2.0681
X2.5579Y-2.7374
X2.8335Y-1.2807
X2.8335Y-1.95
X2.8335Y-2.6193
X3.2665Y-1.2807
X3.2665Y-1.95
X3.2665Y-2.6193
X3.5421Y-1.4382
X3.5421Y-2.1075
X3.5421Y-2.7768
X3.7783Y-3.6035
X3.9752Y-1.4382
X3.9752Y-2.1075
X3.9752Y-2.7768
X4.2114Y-3.6035
X4.2508Y-1.5169
X4.2508Y-2.1862
X4.2508Y-2.8555
X4.6412Y-3.7215
X4.6839Y-1.5169
X4.6839Y-2.1862
X4.6839Y-2.8555
X5.0427Y-3.8838
X5.4154Y-4.1258
X5.727Y-4.4266
T4
X1.2755Y-1.7917
X1.3105Y-2.4601
X1.3457Y-3.1285
X1.4676Y-1.6949
X1.4676Y-1.6949
X1.5026Y-2.3633
X1.5026Y-2.3633
X1.5377Y-3.0317
X1.5377Y-3.0317
X1.6687Y-1.7711
X1.7037Y-2.4395
X1.7389Y-3.1079
X2.1445Y-1.2512
X2.1445Y-1.9205
X2.1445Y-2.5898
X2.3413Y-1.1646
X2.3413Y-1.1646
X2.3413Y-1.8339
X2.3413Y-1.8339
X2.3413Y-2.5031
X2.3413Y-2.5031
X2.5382Y-1.2512
X2.5382Y-1.9205
X2.5382Y-2.5898
X2.8531Y-1.1331
X2.8531Y-1.8024
X2.8531Y-2.4717
X3.05Y-1.0465
X3.05Y-1.0465
X3.05Y-1.7157
X3.05Y-1.7157
X3.05Y-2.385
X3.05Y-2.385
X3.2469Y-1.1331
X3.2469Y-1.8024
X3.2469Y-2.4717
X3.5618Y-1.2906
X3.5618Y-1.9598
X3.5618Y-2.6291
X3.7587Y-1.2039
X3.7587Y-1.2039
X3.7587Y-1.8732
X3.7587Y-1.8732
X3.7587Y-2.5425
X3.7587Y-2.5425
X3.798Y-3.4559
X3.9555Y-1.2906
X3.9555Y-1.9598
X3.9555Y-2.6291
X3.9949Y-3.3693
X3.9949Y-3.3693
X4.1917Y-3.4559
X4.2705Y-1.3693
X4.2705Y-2.0386
X4.2705Y-2.7079
X4.4673Y-1.2827
X4.4673Y-1.2827
X4.4673Y-1.952
X4.4673Y-1.952
X4.4673Y-2.6213
X4.4673Y-2.6213
X4.6642Y-1.3693
X4.6642Y-2.0386
X4.6642Y-2.7079
X4.7148Y-3.592
X4.9297Y-3.5854
X4.9297Y-3.5854
X5.0798Y-3.7395
X5.5321Y-4.0333
X5.7339Y-4.1077
X5.7339Y-4.1077
X5.8154Y-4.3067
T5
X1.4798Y-1.9289
X1.5148Y-2.5972
X1.55Y-3.2656
X2.3413Y-1.3988
X2.3413Y-2.0681
X2.3413Y-2.7374
X3.05Y-1.2807
X3.05Y-1.95
X3.05Y-2.6193
X3.7587Y-1.4382
X3.7587Y-2.1075
X3.7587Y-2.7768
X3.9949Y-3.6035
X4.4673Y-1.5169
X4.4673Y-2.1862
X4.4673Y-2.8555
X4.842Y-3.8026
X5.5712Y-4.2762
T0
M30
