%TF.GenerationSoftware,KiCad,Pcbnew,(6.0.4-0)*%
%TF.CreationDate,2022-05-03T20:10:54+08:00*%
%TF.ProjectId,board,626f6172-642e-46b6-9963-61645f706362,v1.0.0*%
%TF.SameCoordinates,Original*%
%TF.FileFunction,Soldermask,Bot*%
%TF.FilePolarity,Negative*%
%FSLAX46Y46*%
G04 Gerber Fmt 4.6, Leading zero omitted, Abs format (unit mm)*
G04 Created by KiCad (PCBNEW (6.0.4-0)) date 2022-05-03 20:10:54*
%MOMM*%
%LPD*%
G01*
G04 APERTURE LIST*
G04 Aperture macros list*
%AMRoundRect*
0 Rectangle with rounded corners*
0 $1 Rounding radius*
0 $2 $3 $4 $5 $6 $7 $8 $9 X,Y pos of 4 corners*
0 Add a 4 corners polygon primitive as box body*
4,1,4,$2,$3,$4,$5,$6,$7,$8,$9,$2,$3,0*
0 Add four circle primitives for the rounded corners*
1,1,$1+$1,$2,$3*
1,1,$1+$1,$4,$5*
1,1,$1+$1,$6,$7*
1,1,$1+$1,$8,$9*
0 Add four rect primitives between the rounded corners*
20,1,$1+$1,$2,$3,$4,$5,0*
20,1,$1+$1,$4,$5,$6,$7,0*
20,1,$1+$1,$6,$7,$8,$9,0*
20,1,$1+$1,$8,$9,$2,$3,0*%
G04 Aperture macros list end*
%ADD10C,1.100000*%
%ADD11C,2.005000*%
%ADD12RoundRect,0.050000X-0.450000X-0.600000X0.450000X-0.600000X0.450000X0.600000X-0.450000X0.600000X0*%
%ADD13RoundRect,0.050000X-0.889000X-0.889000X0.889000X-0.889000X0.889000X0.889000X-0.889000X0.889000X0*%
%ADD14RoundRect,0.050000X-0.641997X-0.387737X0.192469X-0.724883X0.641997X0.387737X-0.192469X0.724883X0*%
%ADD15RoundRect,0.050000X-1.157292X-0.491241X0.491241X-1.157292X1.157292X0.491241X-0.491241X1.157292X0*%
%ADD16C,1.801800*%
%ADD17C,3.100000*%
%ADD18C,3.529000*%
%ADD19RoundRect,0.050000X-1.230182X-1.366255X1.366255X-1.230182X1.230182X1.366255X-1.366255X1.230182X0*%
%ADD20RoundRect,0.050000X-0.750000X-0.750000X0.750000X-0.750000X0.750000X0.750000X-0.750000X0.750000X0*%
%ADD21RoundRect,0.050000X-1.300000X-1.300000X1.300000X-1.300000X1.300000X1.300000X-1.300000X1.300000X0*%
%ADD22RoundRect,0.050000X-0.740498X-0.119008X-0.093092X-0.744200X0.740498X0.119008X0.093092X0.744200X0*%
%ADD23RoundRect,0.050000X-1.257044X-0.021942X0.021942X-1.257044X1.257044X0.021942X-0.021942X1.257044X0*%
%ADD24RoundRect,0.050000X-0.876300X0.876300X-0.876300X-0.876300X0.876300X-0.876300X0.876300X0.876300X0*%
%ADD25C,1.852600*%
%ADD26RoundRect,0.425000X-0.375000X-0.375000X0.375000X-0.375000X0.375000X0.375000X-0.375000X0.375000X0*%
%ADD27RoundRect,0.050000X-0.417982X-0.622729X0.480785X-0.575627X0.417982X0.622729X-0.480785X0.575627X0*%
%ADD28RoundRect,0.050000X-0.841255X-0.934308X0.934308X-0.841255X0.841255X0.934308X-0.934308X0.841255X0*%
%ADD29C,1.600000*%
%ADD30O,2.300000X1.700000*%
%ADD31RoundRect,0.050000X-0.450000X0.450000X-0.450000X-0.450000X0.450000X-0.450000X0.450000X0.450000X0*%
%ADD32RoundRect,0.050000X-0.625000X0.450000X-0.625000X-0.450000X0.625000X-0.450000X0.625000X0.450000X0*%
%ADD33RoundRect,0.050000X-1.692328X-0.718350X0.718350X-1.692328X1.692328X0.718350X-0.718350X1.692328X0*%
%ADD34RoundRect,0.050000X-0.571500X0.317500X-0.571500X-0.317500X0.571500X-0.317500X0.571500X0.317500X0*%
%ADD35RoundRect,0.050000X-1.838198X-0.032086X0.032086X-1.838198X1.838198X0.032086X-0.032086X1.838198X0*%
G04 APERTURE END LIST*
D10*
%TO.C,T1*%
X143470000Y-71030000D03*
X143470000Y-74030000D03*
%TD*%
D11*
%TO.C,D14*%
X117280000Y-60530000D03*
D12*
X111820000Y-60530000D03*
D13*
X109660000Y-60530000D03*
D12*
X115120000Y-60530000D03*
%TD*%
D11*
%TO.C,D17*%
X124645407Y-102650143D03*
D14*
X119582984Y-100604791D03*
D15*
X117580267Y-99795641D03*
D14*
X122642690Y-101840993D03*
%TD*%
D12*
%TO.C,D15*%
X111820000Y-43530000D03*
D11*
X117280000Y-43530000D03*
D12*
X115120000Y-43530000D03*
D13*
X109660000Y-43530000D03*
%TD*%
D16*
%TO.C,S1*%
X33877538Y-83234291D03*
X44862462Y-82658595D03*
D17*
X34180592Y-79463262D03*
X39058601Y-77004597D03*
X39058601Y-77004597D03*
D18*
X39370000Y-82946443D03*
D17*
X44166888Y-78939902D03*
D19*
X35788089Y-77175998D03*
X47437400Y-78768502D03*
%TD*%
D20*
%TO.C,PAD1*%
X136470000Y-56530000D03*
%TD*%
D17*
%TO.C,S11*%
X90470000Y-49780000D03*
X95470000Y-47580000D03*
X100470000Y-49780000D03*
D16*
X89970000Y-53530000D03*
X100970000Y-53530000D03*
D17*
X95470000Y-47580000D03*
D18*
X95470000Y-53530000D03*
D21*
X92195000Y-47580000D03*
X103745000Y-49780000D03*
%TD*%
D11*
%TO.C,D18*%
X140775704Y-114858933D03*
D22*
X136848108Y-111066099D03*
X139221930Y-113358471D03*
D23*
X135294334Y-109565637D03*
%TD*%
D16*
%TO.C,S7*%
X71970000Y-66530000D03*
D17*
X72470000Y-62780000D03*
D16*
X82970000Y-66530000D03*
D17*
X77470000Y-60580000D03*
D18*
X77470000Y-66530000D03*
D17*
X82470000Y-62780000D03*
X77470000Y-60580000D03*
D21*
X74195000Y-60580000D03*
X85745000Y-62780000D03*
%TD*%
D17*
%TO.C,S13*%
X108470000Y-68780000D03*
X113470000Y-66580000D03*
X118470000Y-68780000D03*
X113470000Y-66580000D03*
D16*
X118970000Y-72530000D03*
D18*
X113470000Y-72530000D03*
D16*
X107970000Y-72530000D03*
D21*
X110195000Y-66580000D03*
X121745000Y-68780000D03*
%TD*%
D24*
%TO.C,MCU2*%
X128350000Y-36810000D03*
D25*
X128350000Y-39350000D03*
X128350000Y-41890000D03*
X128350000Y-44430000D03*
X128350000Y-46970000D03*
X128350000Y-49510000D03*
X128350000Y-52050000D03*
X128350000Y-54590000D03*
X128350000Y-57130000D03*
X128350000Y-59670000D03*
X128350000Y-62210000D03*
X128350000Y-64750000D03*
X143590000Y-36810000D03*
X143590000Y-39350000D03*
X143590000Y-41890000D03*
X143590000Y-44430000D03*
X143590000Y-46970000D03*
X143590000Y-49510000D03*
X143590000Y-52050000D03*
X143590000Y-54590000D03*
X143590000Y-57130000D03*
X143590000Y-59670000D03*
X143590000Y-62210000D03*
X143590000Y-64750000D03*
D26*
X143590000Y-34270000D03*
X128350000Y-34270000D03*
%TD*%
D27*
%TO.C,D1*%
X37980615Y-88025945D03*
D11*
X43433133Y-87740191D03*
D28*
X35823575Y-88138991D03*
D27*
X41276093Y-87853237D03*
%TD*%
D17*
%TO.C,S8*%
X77470000Y-43580000D03*
D16*
X71970000Y-49530000D03*
D17*
X82470000Y-45780000D03*
X77470000Y-43580000D03*
D16*
X82970000Y-49530000D03*
D17*
X72470000Y-45780000D03*
D18*
X77470000Y-49530000D03*
D21*
X74195000Y-43580000D03*
X85745000Y-45780000D03*
%TD*%
D16*
%TO.C,S10*%
X89970000Y-70530000D03*
D17*
X95470000Y-64580000D03*
D16*
X100970000Y-70530000D03*
D17*
X100470000Y-66780000D03*
X90470000Y-66780000D03*
X95470000Y-64580000D03*
D18*
X95470000Y-70530000D03*
D21*
X92195000Y-64580000D03*
X103745000Y-66780000D03*
%TD*%
D11*
%TO.C,D16*%
X105280000Y-96530000D03*
D12*
X99820000Y-96530000D03*
D13*
X97660000Y-96530000D03*
D12*
X103120000Y-96530000D03*
%TD*%
D16*
%TO.C,S6*%
X64970000Y-35530000D03*
D18*
X59470000Y-35530000D03*
D17*
X64470000Y-31780000D03*
X59470000Y-29580000D03*
X54470000Y-31780000D03*
D16*
X53970000Y-35530000D03*
D17*
X59470000Y-29580000D03*
D21*
X56195000Y-29580000D03*
X67745000Y-31780000D03*
%TD*%
D27*
%TO.C,D3*%
X36201192Y-54072540D03*
D11*
X41653710Y-53786786D03*
D28*
X34044152Y-54185586D03*
D27*
X39496670Y-53899832D03*
%TD*%
D16*
%TO.C,S9*%
X71970000Y-32530000D03*
D17*
X77470000Y-26580000D03*
X82470000Y-28780000D03*
D16*
X82970000Y-32530000D03*
D18*
X77470000Y-32530000D03*
D17*
X77470000Y-26580000D03*
X72470000Y-28780000D03*
D21*
X74195000Y-26580000D03*
X85745000Y-28780000D03*
%TD*%
D16*
%TO.C,S15*%
X118970000Y-38530000D03*
D17*
X118470000Y-34780000D03*
X113470000Y-32580000D03*
X113470000Y-32580000D03*
D16*
X107970000Y-38530000D03*
D17*
X108470000Y-34780000D03*
D18*
X113470000Y-38530000D03*
D21*
X110195000Y-32580000D03*
X121745000Y-34780000D03*
%TD*%
D12*
%TO.C,D6*%
X57820000Y-40530000D03*
D11*
X63280000Y-40530000D03*
D12*
X61120000Y-40530000D03*
D13*
X55660000Y-40530000D03*
%TD*%
D16*
%TO.C,S5*%
X64970000Y-52530000D03*
D18*
X59470000Y-52530000D03*
D17*
X59470000Y-46580000D03*
X59470000Y-46580000D03*
X64470000Y-48780000D03*
X54470000Y-48780000D03*
D16*
X53970000Y-52530000D03*
D21*
X56195000Y-46580000D03*
X67745000Y-48780000D03*
%TD*%
D11*
%TO.C,D9*%
X81280000Y-37530000D03*
D12*
X75820000Y-37530000D03*
X79120000Y-37530000D03*
D13*
X73660000Y-37530000D03*
%TD*%
D27*
%TO.C,D2*%
X37090904Y-71049243D03*
D11*
X42543422Y-70763489D03*
D27*
X40386382Y-70876535D03*
D28*
X34933864Y-71162289D03*
%TD*%
D26*
%TO.C,MCU1*%
X141090000Y-33020000D03*
X125850000Y-33020000D03*
D25*
X125850000Y-63500000D03*
X125850000Y-60960000D03*
X125850000Y-58420000D03*
X125850000Y-55880000D03*
X125850000Y-53340000D03*
X125850000Y-50800000D03*
X125850000Y-48260000D03*
X125850000Y-45720000D03*
X125850000Y-43180000D03*
X125850000Y-40640000D03*
X125850000Y-38100000D03*
X125850000Y-35560000D03*
X141090000Y-63500000D03*
X141090000Y-60960000D03*
X141090000Y-58420000D03*
X141090000Y-55880000D03*
X141090000Y-53340000D03*
X141090000Y-50800000D03*
X141090000Y-48260000D03*
X141090000Y-45720000D03*
X141090000Y-43180000D03*
X141090000Y-40640000D03*
X141090000Y-38100000D03*
D24*
X141090000Y-35560000D03*
%TD*%
D16*
%TO.C,S2*%
X43969425Y-65681893D03*
D18*
X38476963Y-65969741D03*
D16*
X32984501Y-66257589D03*
D17*
X43273851Y-61963200D03*
X38165564Y-60027895D03*
X33287555Y-62486560D03*
X38165564Y-60027895D03*
D19*
X34895052Y-60199296D03*
X46544363Y-61791800D03*
%TD*%
D29*
%TO.C,TRRS1*%
X143870000Y-87530000D03*
X143870000Y-85230000D03*
X136870000Y-85230000D03*
X136870000Y-87530000D03*
D30*
X134170000Y-87530000D03*
X134170000Y-85230000D03*
X135270000Y-82930000D03*
X135270000Y-89830000D03*
X139270000Y-89830000D03*
X139270000Y-82930000D03*
X142270000Y-89830000D03*
X142270000Y-82930000D03*
%TD*%
D31*
%TO.C,T2*%
X144570000Y-76230000D03*
X144570000Y-68830000D03*
D10*
X143470000Y-74030000D03*
X143470000Y-71030000D03*
D31*
X142370000Y-68830000D03*
X142370000Y-76230000D03*
D32*
X141395000Y-70280000D03*
X141395000Y-73280000D03*
X141395000Y-74780000D03*
%TD*%
D18*
%TO.C,S16*%
X101470000Y-91530000D03*
D17*
X101470000Y-85580000D03*
D16*
X106970000Y-91530000D03*
D17*
X106470000Y-87780000D03*
D16*
X95970000Y-91530000D03*
D17*
X101470000Y-85580000D03*
X96470000Y-87780000D03*
D21*
X98195000Y-85580000D03*
X109745000Y-87780000D03*
%TD*%
D17*
%TO.C,S3*%
X37275853Y-43051193D03*
X32397844Y-45509858D03*
D18*
X37587252Y-48993039D03*
D16*
X43079714Y-48705191D03*
D17*
X37275853Y-43051193D03*
D16*
X32094790Y-49280887D03*
D17*
X42384140Y-44986498D03*
D19*
X34005341Y-43222594D03*
X45654652Y-44815098D03*
%TD*%
D18*
%TO.C,S17*%
X122985870Y-96586973D03*
D17*
X129026564Y-94983067D03*
X125214779Y-91070229D03*
D16*
X128085381Y-98647309D03*
D17*
X119754725Y-91237001D03*
D16*
X117886359Y-94526637D03*
D17*
X125214779Y-91070229D03*
D33*
X122178252Y-89843392D03*
X132063091Y-96209903D03*
%TD*%
D12*
%TO.C,D12*%
X93820000Y-41530000D03*
D11*
X99280000Y-41530000D03*
D13*
X91660000Y-41530000D03*
D12*
X97120000Y-41530000D03*
%TD*%
%TO.C,D8*%
X75820000Y-54530000D03*
D11*
X81280000Y-54530000D03*
D13*
X73660000Y-54530000D03*
D12*
X79120000Y-54530000D03*
%TD*%
D11*
%TO.C,D13*%
X117280000Y-77530000D03*
D12*
X111820000Y-77530000D03*
D13*
X109660000Y-77530000D03*
D12*
X115120000Y-77530000D03*
%TD*%
D16*
%TO.C,S4*%
X64970000Y-69530000D03*
X53970000Y-69530000D03*
D17*
X64470000Y-65780000D03*
X54470000Y-65780000D03*
X59470000Y-63580000D03*
D18*
X59470000Y-69530000D03*
D17*
X59470000Y-63580000D03*
D21*
X56195000Y-63580000D03*
X67745000Y-65780000D03*
%TD*%
D12*
%TO.C,D10*%
X93820000Y-75530000D03*
D11*
X99280000Y-75530000D03*
D12*
X97120000Y-75530000D03*
D13*
X91660000Y-75530000D03*
%TD*%
D12*
%TO.C,D5*%
X57820000Y-57530000D03*
D11*
X63280000Y-57530000D03*
D13*
X55660000Y-57530000D03*
D12*
X61120000Y-57530000D03*
%TD*%
%TO.C,D7*%
X75820000Y-71530000D03*
D11*
X81280000Y-71530000D03*
D13*
X73660000Y-71530000D03*
D12*
X79120000Y-71530000D03*
%TD*%
D16*
%TO.C,S14*%
X118970000Y-55530000D03*
X107970000Y-55530000D03*
D17*
X113470000Y-49580000D03*
X118470000Y-51780000D03*
D18*
X113470000Y-55530000D03*
D17*
X108470000Y-51780000D03*
X113470000Y-49580000D03*
D21*
X110195000Y-49580000D03*
X121745000Y-51780000D03*
%TD*%
D11*
%TO.C,D11*%
X99280000Y-58530000D03*
D12*
X93820000Y-58530000D03*
D13*
X91660000Y-58530000D03*
D12*
X97120000Y-58530000D03*
%TD*%
D34*
%TO.C,J1*%
X136970000Y-72029620D03*
X136970000Y-73030380D03*
%TD*%
D17*
%TO.C,S18*%
X145641528Y-104335514D03*
X145641528Y-104335514D03*
X147709979Y-109391354D03*
D16*
X145464680Y-112436207D03*
D18*
X141508311Y-108615586D03*
D16*
X137551942Y-104794965D03*
D17*
X140516581Y-102444770D03*
D35*
X143285690Y-102060508D03*
X150065817Y-111666360D03*
%TD*%
D20*
%TO.C,PAD2*%
X136470000Y-53530000D03*
%TD*%
D17*
%TO.C,S12*%
X95470000Y-30580000D03*
X90470000Y-32780000D03*
X95470000Y-30580000D03*
X100470000Y-32780000D03*
D18*
X95470000Y-36530000D03*
D16*
X100970000Y-36530000D03*
X89970000Y-36530000D03*
D21*
X92195000Y-30580000D03*
X103745000Y-32780000D03*
%TD*%
D11*
%TO.C,D4*%
X63280000Y-74530000D03*
D12*
X57820000Y-74530000D03*
X61120000Y-74530000D03*
D13*
X55660000Y-74530000D03*
%TD*%
M02*
