%TF.GenerationSoftware,KiCad,Pcbnew,(6.0.4-0)*%
%TF.CreationDate,2022-05-03T20:10:54+08:00*%
%TF.ProjectId,board,626f6172-642e-46b6-9963-61645f706362,v1.0.0*%
%TF.SameCoordinates,Original*%
%TF.FileFunction,Profile,NP*%
%FSLAX46Y46*%
G04 Gerber Fmt 4.6, Leading zero omitted, Abs format (unit mm)*
G04 Created by KiCad (PCBNEW (6.0.4-0)) date 2022-05-03 20:10:54*
%MOMM*%
%LPD*%
G01*
G04 APERTURE LIST*
%TA.AperFunction,Profile*%
%ADD10C,0.150000*%
%TD*%
G04 APERTURE END LIST*
D10*
X105678390Y-27918888D02*
G75*
G03*
X104245097Y-27030000I-1433290J-711112D01*
G01*
X123464367Y-30880000D02*
G75*
G03*
X121470000Y-29030000I-1994367J-150000D01*
G01*
X143470000Y-30880000D02*
X123464367Y-30880000D01*
X105678387Y-27918889D02*
G75*
G03*
X107470000Y-29030000I1791613J888889D01*
G01*
X158173863Y-109352358D02*
X143123954Y-124936995D01*
X27208437Y-42026677D02*
X28883187Y-73982822D01*
X87470000Y-25030000D02*
X87470000Y-24630000D01*
X49131603Y-91947722D02*
X49434660Y-91931839D01*
X47574671Y-38956559D02*
G75*
G03*
X49470000Y-36959324I-104671J1997259D01*
G01*
X28987859Y-75980081D02*
X29772898Y-90959524D01*
X92720000Y-91530000D02*
G75*
G03*
X92720000Y-91530000I-2050000J0D01*
G01*
X97038814Y-104734850D02*
G75*
G03*
X97276687Y-104867229I1089286J1677450D01*
G01*
X85870000Y-23030000D02*
X69470000Y-23030000D01*
X121470000Y-29030000D02*
X107470000Y-29030000D01*
X87470000Y-24630000D02*
G75*
G03*
X85870000Y-23030000I-1600000J0D01*
G01*
X47891487Y-92024736D02*
X47852902Y-92014736D01*
X145470000Y-88477521D02*
X145470000Y-32880000D01*
X106520000Y-38530000D02*
G75*
G03*
X106520000Y-38530000I-2050000J0D01*
G01*
X140833929Y-125357433D02*
X97276687Y-104867229D01*
X49131603Y-91947722D02*
G75*
G03*
X47891487Y-92024736I4339597J-79901578D01*
G01*
X51620000Y-52530000D02*
G75*
G03*
X51620000Y-52530000I-2050000J0D01*
G01*
X67470000Y-25030000D02*
X67470000Y-25230000D01*
X69470000Y-23030000D02*
G75*
G03*
X67470000Y-25030000I0J-2000000D01*
G01*
X145469986Y-88477521D02*
G75*
G03*
X147995965Y-95121225I10000014J21D01*
G01*
X66670000Y-26030000D02*
X51470000Y-26030000D01*
X51470000Y-26030000D02*
G75*
G03*
X49470000Y-28030000I0J-2000000D01*
G01*
X104245097Y-27030000D02*
X89470000Y-27030000D01*
X29772988Y-90959519D02*
G75*
G03*
X31874829Y-92852111I1997212J104619D01*
G01*
X97038812Y-104734853D02*
G75*
G03*
X49434660Y-91931839I-43568812J-67095147D01*
G01*
X29101024Y-39924746D02*
X47574672Y-38956583D01*
X31874829Y-92852111D02*
X47852902Y-92014736D01*
X87470000Y-25030000D02*
G75*
G03*
X89470000Y-27030000I2000000J0D01*
G01*
X49470000Y-36959324D02*
X49470000Y-28030000D01*
X135530478Y-100863199D02*
G75*
G03*
X135530478Y-100863199I-2050000J0D01*
G01*
X147995965Y-95121225D02*
X158229990Y-106634301D01*
X158173821Y-109352318D02*
G75*
G03*
X158229989Y-106634301I-1438621J1389318D01*
G01*
X66670000Y-26030000D02*
G75*
G03*
X67470000Y-25230000I0J800000D01*
G01*
X140833940Y-125357410D02*
G75*
G03*
X143123953Y-124936996I851360J1809710D01*
G01*
X29101024Y-39924737D02*
G75*
G03*
X27208437Y-42026677I104676J-1997263D01*
G01*
X28883187Y-73982822D02*
X28987859Y-75980081D01*
X105470000Y-27030000D02*
X105470000Y-27030000D01*
X145470000Y-32880000D02*
G75*
G03*
X143470000Y-30880000I-2000000J0D01*
G01*
X51303106Y-82428317D02*
G75*
G03*
X51303106Y-82428317I-2050000J0D01*
G01*
M02*
