M48
; DRILL file {KiCad (6.0.4-0)} date Tuesday, 03 May 2022 at 20:12:33
; FORMAT={-:-/ absolute / inch / decimal}
; #@! TF.CreationDate,2022-05-03T20:12:33+08:00
; #@! TF.GenerationSoftware,Kicad,Pcbnew,(6.0.4-0)
; #@! TF.FileFunction,Plated,1,2,PTH
FMAT,2
INCH
; #@! TA.AperFunction,Plated,PTH,ViaDrill
T1C0.0157
; #@! TA.AperFunction,Plated,PTH,ComponentDrill
T2C0.0354
; #@! TA.AperFunction,Plated,PTH,ComponentDrill
T3C0.0390
; #@! TA.AperFunction,Plated,PTH,ComponentDrill
T4C0.0430
%
G90
G05
T1
X1.4399Y-1.8233
X1.474Y-2.5006
X1.5048Y-3.1554
X2.2519Y-1.9516
X2.2634Y-1.2876
X2.278Y-2.6224
X3.0092Y-1.8524
X3.0134Y-1.1799
X3.0154Y-2.5175
X3.3Y-1.65
X3.3Y-2.85
X3.7109Y-2.6749
X3.7194Y-2.0085
X3.7209Y-1.337
X3.95Y-3.5
X4.15Y-2.45
X4.4262Y-2.0881
X4.4273Y-2.7579
X4.431Y-1.4099
X4.7317Y-1.8215
X4.8Y-3.3
X4.85Y-3.7
X5.2989Y-2.2255
X5.3Y-2.1076
X5.35Y-2.65
X5.35Y-2.8
X5.45Y-2.85
X5.5Y-2.6
X5.6045Y-4.1797
T3
X1.3403Y-2.1333
X1.3753Y-2.8017
X1.4104Y-3.47
X1.6399Y-2.1176
X1.6749Y-2.786
X1.71Y-3.4543
X2.1913Y-1.5957
X2.1913Y-2.265
X2.1913Y-2.9343
X2.4913Y-1.5957
X2.4913Y-2.265
X2.4913Y-2.9343
X2.9Y-1.4776
X2.9Y-2.1469
X2.9Y-2.8161
X3.2Y-1.4776
X3.2Y-2.1469
X3.2Y-2.8161
X3.6087Y-1.635
X3.6087Y-2.3043
X3.6087Y-2.9736
X3.8449Y-3.8004
X3.9087Y-1.635
X3.9087Y-2.3043
X3.9087Y-2.9736
X4.1449Y-3.8004
X4.3173Y-1.7138
X4.3173Y-2.3831
X4.3173Y-3.0524
X4.6173Y-1.7138
X4.6173Y-2.3831
X4.6173Y-3.0524
X4.6291Y-3.929
X4.9073Y-4.0413
X5.3265Y-4.3136
X5.5424Y-4.522
T4
X4.9547Y-1.3
X4.9547Y-1.4
X4.9547Y-1.5
X4.9547Y-1.6
X4.9547Y-1.7
X4.9547Y-1.8
X4.9547Y-1.9
X4.9547Y-2.0
X4.9547Y-2.1
X4.9547Y-2.2
X4.9547Y-2.3
X4.9547Y-2.4
X4.9547Y-2.5
X5.0531Y-1.3492
X5.0531Y-1.4492
X5.0531Y-1.5492
X5.0531Y-1.6492
X5.0531Y-1.7492
X5.0531Y-1.8492
X5.0531Y-1.9492
X5.0531Y-2.0492
X5.0531Y-2.1492
X5.0531Y-2.2492
X5.0531Y-2.3492
X5.0531Y-2.4492
X5.0531Y-2.5492
X5.5547Y-1.3
X5.5547Y-1.4
X5.5547Y-1.5
X5.5547Y-1.6
X5.5547Y-1.7
X5.5547Y-1.8
X5.5547Y-1.9
X5.5547Y-2.0
X5.5547Y-2.1
X5.5547Y-2.2
X5.5547Y-2.3
X5.5547Y-2.4
X5.5547Y-2.5
X5.6531Y-1.3492
X5.6531Y-1.4492
X5.6531Y-1.5492
X5.6531Y-1.6492
X5.6531Y-1.7492
X5.6531Y-1.8492
X5.6531Y-1.9492
X5.6531Y-2.0492
X5.6531Y-2.1492
X5.6531Y-2.2492
X5.6531Y-2.3492
X5.6531Y-2.4492
X5.6531Y-2.5492
T2
G00X5.2941Y-3.3555
M15
G01X5.2705Y-3.3555
M16
G05
G00X5.2941Y-3.4461
M15
G01X5.2705Y-3.4461
M16
G05
G00X5.3374Y-3.265
M15
G01X5.3138Y-3.265
M16
G05
G00X5.3374Y-3.5366
M15
G01X5.3138Y-3.5366
M16
G05
G00X5.4949Y-3.265
M15
G01X5.4713Y-3.265
M16
G05
G00X5.4949Y-3.5366
M15
G01X5.4713Y-3.5366
M16
G05
G00X5.613Y-3.265
M15
G01X5.5894Y-3.265
M16
G05
G00X5.613Y-3.5366
M15
G01X5.5894Y-3.5366
M16
G05
T0
M30
