%TF.GenerationSoftware,KiCad,Pcbnew,(6.0.4-0)*%
%TF.CreationDate,2022-05-03T20:10:54+08:00*%
%TF.ProjectId,board,626f6172-642e-46b6-9963-61645f706362,v1.0.0*%
%TF.SameCoordinates,Original*%
%TF.FileFunction,Copper,L2,Bot*%
%TF.FilePolarity,Positive*%
%FSLAX46Y46*%
G04 Gerber Fmt 4.6, Leading zero omitted, Abs format (unit mm)*
G04 Created by KiCad (PCBNEW (6.0.4-0)) date 2022-05-03 20:10:54*
%MOMM*%
%LPD*%
G01*
G04 APERTURE LIST*
G04 Aperture macros list*
%AMRoundRect*
0 Rectangle with rounded corners*
0 $1 Rounding radius*
0 $2 $3 $4 $5 $6 $7 $8 $9 X,Y pos of 4 corners*
0 Add a 4 corners polygon primitive as box body*
4,1,4,$2,$3,$4,$5,$6,$7,$8,$9,$2,$3,0*
0 Add four circle primitives for the rounded corners*
1,1,$1+$1,$2,$3*
1,1,$1+$1,$4,$5*
1,1,$1+$1,$6,$7*
1,1,$1+$1,$8,$9*
0 Add four rect primitives between the rounded corners*
20,1,$1+$1,$2,$3,$4,$5,0*
20,1,$1+$1,$4,$5,$6,$7,0*
20,1,$1+$1,$6,$7,$8,$9,0*
20,1,$1+$1,$8,$9,$2,$3,0*%
%AMRotRect*
0 Rectangle, with rotation*
0 The origin of the aperture is its center*
0 $1 length*
0 $2 width*
0 $3 Rotation angle, in degrees counterclockwise*
0 Add horizontal line*
21,1,$1,$2,0,0,$3*%
G04 Aperture macros list end*
%TA.AperFunction,WasherPad*%
%ADD10C,1.000000*%
%TD*%
%TA.AperFunction,ComponentPad*%
%ADD11C,1.905000*%
%TD*%
%TA.AperFunction,SMDPad,CuDef*%
%ADD12R,0.900000X1.200000*%
%TD*%
%TA.AperFunction,ComponentPad*%
%ADD13R,1.778000X1.778000*%
%TD*%
%TA.AperFunction,SMDPad,CuDef*%
%ADD14RotRect,0.900000X1.200000X338.000000*%
%TD*%
%TA.AperFunction,ComponentPad*%
%ADD15RotRect,1.778000X1.778000X338.000000*%
%TD*%
%TA.AperFunction,SMDPad,CuDef*%
%ADD16RotRect,2.600000X2.600000X3.000000*%
%TD*%
%TA.AperFunction,SMDPad,CuDef*%
%ADD17R,1.500000X1.500000*%
%TD*%
%TA.AperFunction,SMDPad,CuDef*%
%ADD18R,2.600000X2.600000*%
%TD*%
%TA.AperFunction,SMDPad,CuDef*%
%ADD19RotRect,0.900000X1.200000X316.000000*%
%TD*%
%TA.AperFunction,ComponentPad*%
%ADD20RotRect,1.778000X1.778000X316.000000*%
%TD*%
%TA.AperFunction,ComponentPad*%
%ADD21R,1.752600X1.752600*%
%TD*%
%TA.AperFunction,ComponentPad*%
%ADD22C,1.752600*%
%TD*%
%TA.AperFunction,ComponentPad*%
%ADD23RoundRect,0.375000X-0.375000X-0.375000X0.375000X-0.375000X0.375000X0.375000X-0.375000X0.375000X0*%
%TD*%
%TA.AperFunction,SMDPad,CuDef*%
%ADD24RotRect,0.900000X1.200000X3.000000*%
%TD*%
%TA.AperFunction,ComponentPad*%
%ADD25RotRect,1.778000X1.778000X3.000000*%
%TD*%
%TA.AperFunction,ComponentPad*%
%ADD26O,2.200000X1.600000*%
%TD*%
%TA.AperFunction,SMDPad,CuDef*%
%ADD27R,0.900000X0.900000*%
%TD*%
%TA.AperFunction,SMDPad,CuDef*%
%ADD28R,1.250000X0.900000*%
%TD*%
%TA.AperFunction,SMDPad,CuDef*%
%ADD29RotRect,2.600000X2.600000X338.000000*%
%TD*%
%TA.AperFunction,SMDPad,CuDef*%
%ADD30R,1.143000X0.635000*%
%TD*%
%TA.AperFunction,SMDPad,CuDef*%
%ADD31RotRect,2.600000X2.600000X316.000000*%
%TD*%
%TA.AperFunction,ViaPad*%
%ADD32C,0.800000*%
%TD*%
%TA.AperFunction,Conductor*%
%ADD33C,0.250000*%
%TD*%
%TA.AperFunction,Conductor*%
%ADD34C,0.400000*%
%TD*%
G04 APERTURE END LIST*
D10*
%TO.P,T1,*%
%TO.N,*%
X143470000Y-71030000D03*
X143470000Y-74030000D03*
%TD*%
D11*
%TO.P,D14,1*%
%TO.N,inner_home*%
X117280000Y-60530000D03*
D12*
%TO.N,P5*%
X111820000Y-60530000D03*
D13*
%TO.P,D14,2*%
X109660000Y-60530000D03*
D12*
%TO.N,inner_home*%
X115120000Y-60530000D03*
%TD*%
D11*
%TO.P,D17,1*%
%TO.N,home_thumb*%
X124645407Y-102650143D03*
D14*
%TO.N,P7*%
X119582984Y-100604791D03*
D15*
%TO.P,D17,2*%
X117580267Y-99795641D03*
D14*
%TO.N,home_thumb*%
X122642690Y-101840993D03*
%TD*%
D12*
%TO.P,D15,1*%
%TO.N,P4*%
X111820000Y-43530000D03*
D11*
%TO.N,inner_top*%
X117280000Y-43530000D03*
D12*
%TO.P,D15,2*%
X115120000Y-43530000D03*
D13*
%TO.N,P4*%
X109660000Y-43530000D03*
%TD*%
D16*
%TO.P,S1,1*%
%TO.N,pinky_bottom*%
X35788089Y-77175998D03*
%TO.P,S1,2*%
%TO.N,P20*%
X47437400Y-78768502D03*
%TD*%
D17*
%TO.P,PAD1,1*%
%TO.N,Braw*%
X136470000Y-56530000D03*
%TD*%
D18*
%TO.P,S11,1*%
%TO.N,index_home*%
X92195000Y-47580000D03*
%TO.P,S11,2*%
%TO.N,P15*%
X103745000Y-49780000D03*
%TD*%
D11*
%TO.P,D18,1*%
%TO.N,far_thumb*%
X140775704Y-114858933D03*
D19*
%TO.N,P7*%
X136848108Y-111066099D03*
%TO.P,D18,2*%
%TO.N,far_thumb*%
X139221930Y-113358471D03*
D20*
%TO.N,P7*%
X135294334Y-109565637D03*
%TD*%
D18*
%TO.P,S7,1*%
%TO.N,middle_bottom*%
X74195000Y-60580000D03*
%TO.P,S7,2*%
%TO.N,P18*%
X85745000Y-62780000D03*
%TD*%
%TO.P,S13,1*%
%TO.N,inner_bottom*%
X110195000Y-66580000D03*
%TO.P,S13,2*%
%TO.N,P14*%
X121745000Y-68780000D03*
%TD*%
D21*
%TO.P,MCU2,1*%
%TO.N,RAW*%
X128350000Y-36810000D03*
D22*
%TO.P,MCU2,2*%
%TO.N,GND*%
X128350000Y-39350000D03*
%TO.P,MCU2,3*%
%TO.N,RST*%
X128350000Y-41890000D03*
%TO.P,MCU2,4*%
%TO.N,VCC*%
X128350000Y-44430000D03*
%TO.P,MCU2,5*%
%TO.N,P21*%
X128350000Y-46970000D03*
%TO.P,MCU2,6*%
%TO.N,P20*%
X128350000Y-49510000D03*
%TO.P,MCU2,7*%
%TO.N,P19*%
X128350000Y-52050000D03*
%TO.P,MCU2,8*%
%TO.N,P18*%
X128350000Y-54590000D03*
%TO.P,MCU2,9*%
%TO.N,P15*%
X128350000Y-57130000D03*
%TO.P,MCU2,10*%
%TO.N,P14*%
X128350000Y-59670000D03*
%TO.P,MCU2,11*%
%TO.N,P16*%
X128350000Y-62210000D03*
%TO.P,MCU2,12*%
%TO.N,P10*%
X128350000Y-64750000D03*
%TO.P,MCU2,13*%
%TO.N,P1*%
X143590000Y-36810000D03*
%TO.P,MCU2,14*%
%TO.N,VCC*%
X143590000Y-39350000D03*
%TO.P,MCU2,15*%
%TO.N,GND*%
X143590000Y-41890000D03*
%TO.P,MCU2,16*%
X143590000Y-44430000D03*
%TO.P,MCU2,17*%
%TO.N,P2*%
X143590000Y-46970000D03*
%TO.P,MCU2,18*%
%TO.N,P3*%
X143590000Y-49510000D03*
%TO.P,MCU2,19*%
%TO.N,P4*%
X143590000Y-52050000D03*
%TO.P,MCU2,20*%
%TO.N,P5*%
X143590000Y-54590000D03*
%TO.P,MCU2,21*%
%TO.N,P6*%
X143590000Y-57130000D03*
%TO.P,MCU2,22*%
%TO.N,P7*%
X143590000Y-59670000D03*
%TO.P,MCU2,23*%
%TO.N,P8*%
X143590000Y-62210000D03*
%TO.P,MCU2,24*%
%TO.N,P9*%
X143590000Y-64750000D03*
D23*
%TO.P,MCU2,25*%
%TO.N,Bminus*%
X143590000Y-34270000D03*
%TO.N,Bplus*%
X128350000Y-34270000D03*
%TD*%
D24*
%TO.P,D1,1*%
%TO.N,P6*%
X37980615Y-88025945D03*
D11*
%TO.N,pinky_bottom*%
X43433133Y-87740191D03*
D25*
%TO.P,D1,2*%
%TO.N,P6*%
X35823575Y-88138991D03*
D24*
%TO.N,pinky_bottom*%
X41276093Y-87853237D03*
%TD*%
D18*
%TO.P,S8,1*%
%TO.N,middle_home*%
X74195000Y-43580000D03*
%TO.P,S8,2*%
%TO.N,P18*%
X85745000Y-45780000D03*
%TD*%
%TO.P,S10,1*%
%TO.N,index_bottom*%
X92195000Y-64580000D03*
%TO.P,S10,2*%
%TO.N,P15*%
X103745000Y-66780000D03*
%TD*%
D11*
%TO.P,D16,1*%
%TO.N,near_thumb*%
X105280000Y-96530000D03*
D12*
%TO.N,P7*%
X99820000Y-96530000D03*
D13*
%TO.P,D16,2*%
X97660000Y-96530000D03*
D12*
%TO.N,near_thumb*%
X103120000Y-96530000D03*
%TD*%
D18*
%TO.P,S6,1*%
%TO.N,ring_top*%
X56195000Y-29580000D03*
%TO.P,S6,2*%
%TO.N,P19*%
X67745000Y-31780000D03*
%TD*%
D24*
%TO.P,D3,1*%
%TO.N,P4*%
X36201192Y-54072540D03*
D11*
%TO.N,pinky_top*%
X41653710Y-53786786D03*
D25*
%TO.P,D3,2*%
%TO.N,P4*%
X34044152Y-54185586D03*
D24*
%TO.N,pinky_top*%
X39496670Y-53899832D03*
%TD*%
D18*
%TO.P,S9,1*%
%TO.N,middle_top*%
X74195000Y-26580000D03*
%TO.P,S9,2*%
%TO.N,P18*%
X85745000Y-28780000D03*
%TD*%
%TO.P,S15,1*%
%TO.N,inner_top*%
X110195000Y-32580000D03*
%TO.P,S15,2*%
%TO.N,P14*%
X121745000Y-34780000D03*
%TD*%
D12*
%TO.P,D6,1*%
%TO.N,P4*%
X57820000Y-40530000D03*
D11*
%TO.N,ring_top*%
X63280000Y-40530000D03*
D12*
%TO.P,D6,2*%
X61120000Y-40530000D03*
D13*
%TO.N,P4*%
X55660000Y-40530000D03*
%TD*%
D18*
%TO.P,S5,1*%
%TO.N,ring_home*%
X56195000Y-46580000D03*
%TO.P,S5,2*%
%TO.N,P19*%
X67745000Y-48780000D03*
%TD*%
D11*
%TO.P,D9,1*%
%TO.N,middle_top*%
X81280000Y-37530000D03*
D12*
%TO.N,P4*%
X75820000Y-37530000D03*
%TO.P,D9,2*%
%TO.N,middle_top*%
X79120000Y-37530000D03*
D13*
%TO.N,P4*%
X73660000Y-37530000D03*
%TD*%
D24*
%TO.P,D2,1*%
%TO.N,P5*%
X37090904Y-71049243D03*
D11*
%TO.N,pinky_home*%
X42543422Y-70763489D03*
D24*
%TO.P,D2,2*%
X40386382Y-70876535D03*
D25*
%TO.N,P5*%
X34933864Y-71162289D03*
%TD*%
D23*
%TO.P,MCU1,25*%
%TO.N,Bplus*%
X141090000Y-33020000D03*
%TO.N,Bminus*%
X125850000Y-33020000D03*
D22*
%TO.P,MCU1,24*%
%TO.N,P9*%
X125850000Y-63500000D03*
%TO.P,MCU1,23*%
%TO.N,P8*%
X125850000Y-60960000D03*
%TO.P,MCU1,22*%
%TO.N,P7*%
X125850000Y-58420000D03*
%TO.P,MCU1,21*%
%TO.N,P6*%
X125850000Y-55880000D03*
%TO.P,MCU1,20*%
%TO.N,P5*%
X125850000Y-53340000D03*
%TO.P,MCU1,19*%
%TO.N,P4*%
X125850000Y-50800000D03*
%TO.P,MCU1,18*%
%TO.N,P3*%
X125850000Y-48260000D03*
%TO.P,MCU1,17*%
%TO.N,P2*%
X125850000Y-45720000D03*
%TO.P,MCU1,16*%
%TO.N,GND*%
X125850000Y-43180000D03*
%TO.P,MCU1,15*%
X125850000Y-40640000D03*
%TO.P,MCU1,14*%
X125850000Y-38100000D03*
%TO.P,MCU1,13*%
%TO.N,P1*%
X125850000Y-35560000D03*
%TO.P,MCU1,12*%
%TO.N,P10*%
X141090000Y-63500000D03*
%TO.P,MCU1,11*%
%TO.N,P16*%
X141090000Y-60960000D03*
%TO.P,MCU1,10*%
%TO.N,P14*%
X141090000Y-58420000D03*
%TO.P,MCU1,9*%
%TO.N,P15*%
X141090000Y-55880000D03*
%TO.P,MCU1,8*%
%TO.N,P18*%
X141090000Y-53340000D03*
%TO.P,MCU1,7*%
%TO.N,P19*%
X141090000Y-50800000D03*
%TO.P,MCU1,6*%
%TO.N,P20*%
X141090000Y-48260000D03*
%TO.P,MCU1,5*%
%TO.N,P21*%
X141090000Y-45720000D03*
%TO.P,MCU1,4*%
%TO.N,VCC*%
X141090000Y-43180000D03*
%TO.P,MCU1,3*%
%TO.N,RST*%
X141090000Y-40640000D03*
%TO.P,MCU1,2*%
%TO.N,GND*%
X141090000Y-38100000D03*
D21*
%TO.P,MCU1,1*%
%TO.N,RAW*%
X141090000Y-35560000D03*
%TD*%
D16*
%TO.P,S2,1*%
%TO.N,pinky_home*%
X34895052Y-60199296D03*
%TO.P,S2,2*%
%TO.N,P20*%
X46544363Y-61791800D03*
%TD*%
D26*
%TO.P,TRRS1,1*%
%TO.N,VCC*%
X134170000Y-87530000D03*
X134170000Y-85230000D03*
%TO.P,TRRS1,2*%
%TO.N,P2*%
X135270000Y-82930000D03*
X135270000Y-89830000D03*
%TO.P,TRRS1,3*%
%TO.N,P3*%
X139270000Y-89830000D03*
X139270000Y-82930000D03*
%TO.P,TRRS1,4*%
%TO.N,GND*%
X142270000Y-89830000D03*
X142270000Y-82930000D03*
%TD*%
D27*
%TO.P,T2,*%
%TO.N,*%
X144570000Y-76230000D03*
X144570000Y-68830000D03*
D10*
X143470000Y-74030000D03*
X143470000Y-71030000D03*
D27*
X142370000Y-68830000D03*
X142370000Y-76230000D03*
D28*
%TO.P,T2,1*%
%TO.N,Braw*%
X141395000Y-70280000D03*
%TO.P,T2,2*%
%TO.N,Bplus*%
X141395000Y-73280000D03*
%TO.P,T2,3*%
%TO.N,N/C*%
X141395000Y-74780000D03*
%TD*%
D18*
%TO.P,S16,1*%
%TO.N,near_thumb*%
X98195000Y-85580000D03*
%TO.P,S16,2*%
%TO.N,P18*%
X109745000Y-87780000D03*
%TD*%
D16*
%TO.P,S3,1*%
%TO.N,pinky_top*%
X34005341Y-43222594D03*
%TO.P,S3,2*%
%TO.N,P20*%
X45654652Y-44815098D03*
%TD*%
D29*
%TO.P,S17,1*%
%TO.N,home_thumb*%
X122178252Y-89843392D03*
%TO.P,S17,2*%
%TO.N,P15*%
X132063091Y-96209903D03*
%TD*%
D12*
%TO.P,D12,1*%
%TO.N,P4*%
X93820000Y-41530000D03*
D11*
%TO.N,index_top*%
X99280000Y-41530000D03*
D13*
%TO.P,D12,2*%
%TO.N,P4*%
X91660000Y-41530000D03*
D12*
%TO.N,index_top*%
X97120000Y-41530000D03*
%TD*%
%TO.P,D8,1*%
%TO.N,P5*%
X75820000Y-54530000D03*
D11*
%TO.N,middle_home*%
X81280000Y-54530000D03*
D13*
%TO.P,D8,2*%
%TO.N,P5*%
X73660000Y-54530000D03*
D12*
%TO.N,middle_home*%
X79120000Y-54530000D03*
%TD*%
D11*
%TO.P,D13,1*%
%TO.N,inner_bottom*%
X117280000Y-77530000D03*
D12*
%TO.N,P6*%
X111820000Y-77530000D03*
D13*
%TO.P,D13,2*%
X109660000Y-77530000D03*
D12*
%TO.N,inner_bottom*%
X115120000Y-77530000D03*
%TD*%
D18*
%TO.P,S4,1*%
%TO.N,ring_bottom*%
X56195000Y-63580000D03*
%TO.P,S4,2*%
%TO.N,P19*%
X67745000Y-65780000D03*
%TD*%
D12*
%TO.P,D10,1*%
%TO.N,P6*%
X93820000Y-75530000D03*
D11*
%TO.N,index_bottom*%
X99280000Y-75530000D03*
D12*
%TO.P,D10,2*%
X97120000Y-75530000D03*
D13*
%TO.N,P6*%
X91660000Y-75530000D03*
%TD*%
D12*
%TO.P,D5,1*%
%TO.N,P5*%
X57820000Y-57530000D03*
D11*
%TO.N,ring_home*%
X63280000Y-57530000D03*
D13*
%TO.P,D5,2*%
%TO.N,P5*%
X55660000Y-57530000D03*
D12*
%TO.N,ring_home*%
X61120000Y-57530000D03*
%TD*%
%TO.P,D7,1*%
%TO.N,P6*%
X75820000Y-71530000D03*
D11*
%TO.N,middle_bottom*%
X81280000Y-71530000D03*
D13*
%TO.P,D7,2*%
%TO.N,P6*%
X73660000Y-71530000D03*
D12*
%TO.N,middle_bottom*%
X79120000Y-71530000D03*
%TD*%
D18*
%TO.P,S14,1*%
%TO.N,inner_home*%
X110195000Y-49580000D03*
%TO.P,S14,2*%
%TO.N,P14*%
X121745000Y-51780000D03*
%TD*%
D11*
%TO.P,D11,1*%
%TO.N,index_home*%
X99280000Y-58530000D03*
D12*
%TO.N,P5*%
X93820000Y-58530000D03*
D13*
%TO.P,D11,2*%
X91660000Y-58530000D03*
D12*
%TO.N,index_home*%
X97120000Y-58530000D03*
%TD*%
D30*
%TO.P,J1,1*%
%TO.N,Braw*%
X136970000Y-72029620D03*
%TO.P,J1,2*%
%TO.N,Bplus*%
X136970000Y-73030380D03*
%TD*%
D31*
%TO.P,S18,1*%
%TO.N,far_thumb*%
X143285690Y-102060508D03*
%TO.P,S18,2*%
%TO.N,P14*%
X150065817Y-111666360D03*
%TD*%
D17*
%TO.P,PAD2,1*%
%TO.N,Bminus*%
X136470000Y-53530000D03*
%TD*%
D18*
%TO.P,S12,1*%
%TO.N,index_top*%
X92195000Y-30580000D03*
%TO.P,S12,2*%
%TO.N,P15*%
X103745000Y-32780000D03*
%TD*%
D11*
%TO.P,D4,1*%
%TO.N,ring_bottom*%
X63280000Y-74530000D03*
D12*
%TO.N,P6*%
X57820000Y-74530000D03*
%TO.P,D4,2*%
%TO.N,ring_bottom*%
X61120000Y-74530000D03*
D13*
%TO.N,P6*%
X55660000Y-74530000D03*
%TD*%
D32*
%TO.N,P20*%
X38220967Y-80147570D03*
X37439704Y-63514213D03*
X120185273Y-46265500D03*
X105410000Y-62230000D03*
X36573179Y-46311134D03*
X83820000Y-72390000D03*
%TO.N,P19*%
X57490079Y-32706238D03*
X57198805Y-49570969D03*
X83820000Y-41910000D03*
X57862180Y-66609162D03*
%TO.N,P18*%
X76539361Y-29968268D03*
X76433349Y-47050229D03*
X76591480Y-63943568D03*
X100330000Y-88900000D03*
%TO.N,P15*%
X94255877Y-67943595D03*
X123190000Y-93980000D03*
X94471973Y-51016095D03*
X94510931Y-33958714D03*
X121920000Y-83820000D03*
%TO.N,P14*%
X142353733Y-106165158D03*
X112547071Y-35810884D03*
X112424247Y-53037123D03*
X112453913Y-70049619D03*
%TO.N,P2*%
X139700000Y-66040000D03*
%TO.N,Bplus*%
X138430000Y-72390000D03*
%TO.N,Bminus*%
X134620000Y-53532601D03*
%TO.N,Braw*%
X135890000Y-67310000D03*
X134593053Y-56526721D03*
X135890000Y-71120000D03*
%TD*%
D33*
%TO.N,GND*%
X125850000Y-38100000D02*
X125850000Y-40640000D01*
D34*
X142240000Y-39985730D02*
X142240000Y-39250000D01*
X142240000Y-39250000D02*
X141090000Y-38100000D01*
X142582201Y-40327931D02*
X142240000Y-39985730D01*
X142582201Y-40882201D02*
X142582201Y-40327931D01*
X143590000Y-41890000D02*
X142582201Y-40882201D01*
%TO.N,Bminus*%
X134622601Y-53530000D02*
X136470000Y-53530000D01*
X134620000Y-53532601D02*
X134622601Y-53530000D01*
D33*
%TO.N,pinky_bottom*%
X43320087Y-87853237D02*
X43433133Y-87740191D01*
X37611203Y-86360000D02*
X39782856Y-86360000D01*
X41276093Y-87853237D02*
X43320087Y-87853237D01*
X36341203Y-77732438D02*
X36341203Y-85090000D01*
X39782856Y-86360000D02*
X41276093Y-87853237D01*
X36341203Y-85090000D02*
X37611203Y-86360000D01*
X35784763Y-77175998D02*
X36341203Y-77732438D01*
%TO.N,P20*%
X40757909Y-47329841D02*
X43139909Y-47329841D01*
X37439704Y-63514213D02*
X37453917Y-63500000D01*
X40640000Y-63500000D02*
X41269321Y-64129321D01*
X45711602Y-81288398D02*
X47434074Y-79565926D01*
X45654652Y-44815098D02*
X45654652Y-54544652D01*
X47437400Y-78269559D02*
X48929748Y-76777211D01*
X41918398Y-81288398D02*
X45711602Y-81288398D01*
X106418398Y-51119050D02*
X106418398Y-47846596D01*
X68177272Y-73992040D02*
X82217960Y-73992040D01*
X48929748Y-76777211D02*
X49506959Y-76200000D01*
X47434074Y-69024074D02*
X46544363Y-68134363D01*
X105410000Y-52070000D02*
X106135264Y-51344736D01*
X36700483Y-46183830D02*
X39611898Y-46183830D01*
X46544363Y-55434363D02*
X46544363Y-61791800D01*
X105410000Y-62230000D02*
X105410000Y-52070000D01*
X36573179Y-46311134D02*
X36700483Y-46183830D01*
X82217960Y-73992040D02*
X83820000Y-72390000D01*
X118605468Y-46266790D02*
X120183983Y-46266790D01*
X47434074Y-79565926D02*
X47434074Y-69024074D01*
X106135264Y-51344736D02*
X106192712Y-51344736D01*
X47437400Y-78768502D02*
X47437400Y-78269559D01*
X106192712Y-51344736D02*
X106418398Y-51119050D01*
X44206842Y-64129321D02*
X46544363Y-61791800D01*
X37453917Y-63500000D02*
X40640000Y-63500000D01*
X139840000Y-49510000D02*
X141090000Y-48260000D01*
X65969312Y-76200000D02*
X68177272Y-73992040D01*
X106418398Y-47846596D02*
X107998204Y-46266790D01*
X128350000Y-49510000D02*
X139840000Y-49510000D01*
X40640000Y-80010000D02*
X41918398Y-81288398D01*
X43139909Y-47329841D02*
X45654652Y-44815098D01*
X107998204Y-46266790D02*
X118605468Y-46266790D01*
X64770000Y-76200000D02*
X65969312Y-76200000D01*
X49506959Y-76200000D02*
X64770000Y-76200000D01*
X39611898Y-46183830D02*
X40757909Y-47329841D01*
X45654652Y-54544652D02*
X46544363Y-55434363D01*
X38220967Y-80147570D02*
X38358537Y-80010000D01*
X120183983Y-46266790D02*
X120185273Y-46265500D01*
X41269321Y-64129321D02*
X44206842Y-64129321D01*
X38358537Y-80010000D02*
X40640000Y-80010000D01*
X46544363Y-68134363D02*
X46544363Y-61791800D01*
%TO.N,P6*%
X73660000Y-71530000D02*
X75820000Y-71530000D01*
X109660000Y-77530000D02*
X111820000Y-77530000D01*
X143590000Y-56681796D02*
X141570947Y-54662743D01*
X129550811Y-55087393D02*
X128758204Y-55880000D01*
X141570947Y-54662743D02*
X140402974Y-54662743D01*
X143590000Y-57130000D02*
X143590000Y-56681796D01*
X140402974Y-54662743D02*
X139978324Y-55087393D01*
X37867569Y-88138991D02*
X37980615Y-88025945D01*
X35823575Y-88138991D02*
X37867569Y-88138991D01*
X55660000Y-74530000D02*
X57820000Y-74530000D01*
X139978324Y-55087393D02*
X129550811Y-55087393D01*
X91660000Y-75530000D02*
X93820000Y-75530000D01*
X128758204Y-55880000D02*
X125850000Y-55880000D01*
%TO.N,pinky_home*%
X35801040Y-67635394D02*
X36700609Y-68534963D01*
X42430376Y-70876535D02*
X42543422Y-70763489D01*
X38044810Y-68534963D02*
X40386382Y-70876535D01*
X34895052Y-60199296D02*
X35801040Y-61105284D01*
X35801040Y-61105284D02*
X35801040Y-67635394D01*
X36700609Y-68534963D02*
X38044810Y-68534963D01*
X40386382Y-70876535D02*
X42430376Y-70876535D01*
%TO.N,P5*%
X73660000Y-54530000D02*
X75820000Y-54530000D01*
X109660000Y-60530000D02*
X111820000Y-60530000D01*
X132080000Y-53340000D02*
X125850000Y-53340000D01*
X34933864Y-71162289D02*
X36977858Y-71162289D01*
X141587393Y-52139189D02*
X133280811Y-52139189D01*
X133280811Y-52139189D02*
X132080000Y-53340000D01*
X143590000Y-54590000D02*
X143590000Y-54141796D01*
X91660000Y-58530000D02*
X93820000Y-58530000D01*
X36977858Y-71162289D02*
X37090904Y-71049243D01*
X55660000Y-57530000D02*
X57820000Y-57530000D01*
X143590000Y-54141796D02*
X141587393Y-52139189D01*
%TO.N,pinky_top*%
X34789156Y-51204454D02*
X34789156Y-44006409D01*
X35654702Y-52070000D02*
X34789156Y-51204454D01*
X39496670Y-53899832D02*
X37666838Y-52070000D01*
X39609716Y-53786786D02*
X39496670Y-53899832D01*
X41653710Y-53786786D02*
X39609716Y-53786786D01*
X34789156Y-44006409D02*
X34005341Y-43222594D01*
X37666838Y-52070000D02*
X35654702Y-52070000D01*
%TO.N,P4*%
X91660000Y-41530000D02*
X93820000Y-41530000D01*
X55660000Y-40530000D02*
X57820000Y-40530000D01*
X139391796Y-50800000D02*
X125850000Y-50800000D01*
X109660000Y-43530000D02*
X111820000Y-43530000D01*
X34044152Y-54185586D02*
X36088146Y-54185586D01*
X140592607Y-49599189D02*
X139391796Y-50800000D01*
X143590000Y-51601796D02*
X141587393Y-49599189D01*
X36088146Y-54185586D02*
X36201192Y-54072540D01*
X73660000Y-37530000D02*
X75820000Y-37530000D01*
X141587393Y-49599189D02*
X140592607Y-49599189D01*
X143590000Y-52050000D02*
X143590000Y-51601796D01*
%TO.N,ring_bottom*%
X61120000Y-74530000D02*
X63280000Y-74530000D01*
X56728517Y-65180551D02*
X56728517Y-71554678D01*
X56195000Y-63580000D02*
X56195000Y-64590874D01*
X59690000Y-72390000D02*
X61120000Y-73820000D01*
X61120000Y-73820000D02*
X61120000Y-74530000D01*
X56756597Y-65152471D02*
X56728517Y-65180551D01*
X57563839Y-72390000D02*
X59690000Y-72390000D01*
X56195000Y-64590874D02*
X56756597Y-65152471D01*
X56728517Y-71554678D02*
X57563839Y-72390000D01*
%TO.N,P19*%
X61951024Y-34011024D02*
X65513976Y-34011024D01*
X57876592Y-66623574D02*
X61505904Y-66623574D01*
X57525639Y-32741798D02*
X60681798Y-32741798D01*
X65513976Y-34011024D02*
X67745000Y-31780000D01*
X78422038Y-41329581D02*
X69160419Y-41329581D01*
X57490079Y-32706238D02*
X57525639Y-32741798D01*
X62382329Y-50952329D02*
X65661538Y-50952329D01*
X65661538Y-50952329D02*
X67745000Y-48868867D01*
X62857737Y-67925339D02*
X65599661Y-67925339D01*
X128350000Y-52050000D02*
X132549520Y-52050000D01*
X60681798Y-32741798D02*
X61951024Y-34011024D01*
X67745000Y-48780000D02*
X67745000Y-65780000D01*
X67745000Y-48868867D02*
X67745000Y-48780000D01*
X133350000Y-51249520D02*
X140640480Y-51249520D01*
X140640480Y-51249520D02*
X141090000Y-50800000D01*
X61606040Y-66673642D02*
X62857737Y-67925339D01*
X79002457Y-41910000D02*
X78422038Y-41329581D01*
X61505904Y-66623574D02*
X61555972Y-66673642D01*
X61000969Y-49570969D02*
X62382329Y-50952329D01*
X69160419Y-41329581D02*
X67745000Y-42745000D01*
X132549520Y-52050000D02*
X133350000Y-51249520D01*
X57198805Y-49570969D02*
X61000969Y-49570969D01*
X67745000Y-48780000D02*
X67745000Y-42745000D01*
X83820000Y-41910000D02*
X79002457Y-41910000D01*
X67745000Y-42745000D02*
X67745000Y-31780000D01*
X65599661Y-67925339D02*
X67745000Y-65780000D01*
X57862180Y-66609162D02*
X57876592Y-66623574D01*
X61555972Y-66673642D02*
X61606040Y-66673642D01*
%TO.N,ring_home*%
X56195000Y-46580000D02*
X56344521Y-46729521D01*
X61120000Y-57530000D02*
X63280000Y-57530000D01*
X56344521Y-46729521D02*
X56344521Y-54090898D01*
X57591633Y-55338010D02*
X59788606Y-55338010D01*
X61120000Y-56669404D02*
X61120000Y-57530000D01*
X56344521Y-54090898D02*
X57591633Y-55338010D01*
X59788606Y-55338010D02*
X61120000Y-56669404D01*
%TO.N,ring_top*%
X56195000Y-29580000D02*
X56195000Y-30463387D01*
X56653118Y-37098845D02*
X57949508Y-38395235D01*
X59985235Y-38395235D02*
X61120000Y-39530000D01*
X57949508Y-38395235D02*
X59985235Y-38395235D01*
X56195000Y-30463387D02*
X56653118Y-30921505D01*
X56653118Y-30921505D02*
X56653118Y-37098845D01*
X61120000Y-40530000D02*
X63280000Y-40530000D01*
X61120000Y-39530000D02*
X61120000Y-40530000D01*
%TO.N,middle_bottom*%
X77652815Y-69297595D02*
X79120000Y-70764780D01*
X74195000Y-60580000D02*
X74853826Y-61238826D01*
X74853826Y-61238826D02*
X74853826Y-67745981D01*
X79120000Y-71530000D02*
X81280000Y-71530000D01*
X76405440Y-69297595D02*
X77652815Y-69297595D01*
X79120000Y-70764780D02*
X79120000Y-71530000D01*
X74853826Y-67745981D02*
X76405440Y-69297595D01*
%TO.N,P18*%
X83395466Y-65129534D02*
X85745000Y-62780000D01*
X90170000Y-77470000D02*
X104140000Y-77470000D01*
X79096803Y-30046999D02*
X79993697Y-30943893D01*
X88900000Y-76200000D02*
X90170000Y-77470000D01*
X88900000Y-73660000D02*
X88900000Y-76200000D01*
X128364511Y-54604511D02*
X139825489Y-54604511D01*
X83581107Y-30943893D02*
X85745000Y-28780000D01*
X109745000Y-83075000D02*
X109745000Y-87780000D01*
X83371944Y-48153056D02*
X85745000Y-45780000D01*
X76433349Y-47050229D02*
X76493578Y-46990000D01*
X128350000Y-54590000D02*
X128364511Y-54604511D01*
X139825489Y-54604511D02*
X141090000Y-53340000D01*
X104072392Y-88900000D02*
X105276099Y-90103707D01*
X100330000Y-88900000D02*
X104072392Y-88900000D01*
X85745000Y-62780000D02*
X85745000Y-70505000D01*
X76493578Y-46990000D02*
X79380020Y-46990000D01*
X104140000Y-77470000D02*
X109745000Y-83075000D01*
X80543076Y-48153056D02*
X83371944Y-48153056D01*
X85745000Y-28780000D02*
X85745000Y-45780000D01*
X85745000Y-45780000D02*
X85745000Y-62780000D01*
X107421293Y-90103707D02*
X109745000Y-87780000D01*
X85745000Y-70505000D02*
X88900000Y-73660000D01*
X105276099Y-90103707D02*
X107421293Y-90103707D01*
X76652889Y-63882159D02*
X79204429Y-63882159D01*
X79993697Y-30943893D02*
X83581107Y-30943893D01*
X76591480Y-63943568D02*
X76652889Y-63882159D01*
X79204429Y-63882159D02*
X80451804Y-65129534D01*
X76539361Y-29968268D02*
X76618092Y-30046999D01*
X80451804Y-65129534D02*
X83395466Y-65129534D01*
X79380020Y-46990000D02*
X80543076Y-48153056D01*
X76618092Y-30046999D02*
X79096803Y-30046999D01*
%TO.N,middle_home*%
X79120000Y-53575334D02*
X79120000Y-54530000D01*
X75188487Y-44573487D02*
X75188487Y-51361324D01*
X75188487Y-51361324D02*
X76269974Y-52442811D01*
X79120000Y-54530000D02*
X81280000Y-54530000D01*
X76269974Y-52442811D02*
X77987477Y-52442811D01*
X77987477Y-52442811D02*
X79120000Y-53575334D01*
X74195000Y-43580000D02*
X75188487Y-44573487D01*
%TO.N,middle_top*%
X77415052Y-35505052D02*
X79120000Y-37210000D01*
X74646730Y-34712388D02*
X75439394Y-35505052D01*
X75439394Y-35505052D02*
X77415052Y-35505052D01*
X74646730Y-27031730D02*
X74646730Y-34712388D01*
X79120000Y-37530000D02*
X81280000Y-37530000D01*
X74195000Y-26580000D02*
X74646730Y-27031730D01*
X79120000Y-37210000D02*
X79120000Y-37530000D01*
%TO.N,index_bottom*%
X92815239Y-72985829D02*
X93489410Y-73660000D01*
X97120000Y-75530000D02*
X99280000Y-75530000D01*
X92815239Y-65200239D02*
X92815239Y-72985829D01*
X92195000Y-64580000D02*
X92815239Y-65200239D01*
X97120000Y-74877521D02*
X97120000Y-75530000D01*
X93489410Y-73660000D02*
X95902479Y-73660000D01*
X95902479Y-73660000D02*
X97120000Y-74877521D01*
%TO.N,P15*%
X101608038Y-34916962D02*
X100126478Y-34916962D01*
X103745000Y-49780000D02*
X103745000Y-66780000D01*
X121920000Y-83820000D02*
X120988709Y-84751291D01*
X131183709Y-97089285D02*
X132063091Y-96209903D01*
X102870000Y-45720000D02*
X103745000Y-46595000D01*
X97153595Y-67943595D02*
X98270090Y-69060090D01*
X103745000Y-32780000D02*
X101608038Y-34916962D01*
X103745000Y-75169283D02*
X113327008Y-84751291D01*
X99060000Y-36108332D02*
X99060000Y-36706992D01*
X128824511Y-57604511D02*
X139365489Y-57604511D01*
X126111347Y-96178123D02*
X127022509Y-97089285D01*
X113327008Y-84751291D02*
X120311291Y-84751291D01*
X102870000Y-41910000D02*
X102870000Y-45720000D01*
X99060000Y-39370000D02*
X100330000Y-40640000D01*
X103745000Y-49925000D02*
X103745000Y-49780000D01*
X123190000Y-93980000D02*
X123292449Y-94082449D01*
X97281217Y-51016095D02*
X98361696Y-52096574D01*
X127022509Y-97089285D02*
X131183709Y-97089285D01*
X123435475Y-84751291D02*
X132063091Y-93378907D01*
X103745000Y-46595000D02*
X103745000Y-49780000D01*
X98270090Y-69060090D02*
X101464910Y-69060090D01*
X101600000Y-40640000D02*
X102870000Y-41910000D01*
X100126478Y-34916962D02*
X99060000Y-35983440D01*
X128350000Y-57130000D02*
X128824511Y-57604511D01*
X98361696Y-52096574D02*
X101573426Y-52096574D01*
X96965700Y-34014032D02*
X99060000Y-36108332D01*
X94510931Y-33958714D02*
X94566249Y-34014032D01*
X120311291Y-84751291D02*
X123435475Y-84751291D01*
X139365489Y-57604511D02*
X141090000Y-55880000D01*
X99060000Y-35983440D02*
X99060000Y-36706992D01*
X94255877Y-67943595D02*
X97153595Y-67943595D01*
X125200184Y-94082449D02*
X126111347Y-94993612D01*
X132063091Y-93378907D02*
X132063091Y-96209903D01*
X101464910Y-69060090D02*
X103745000Y-66780000D01*
X103745000Y-66780000D02*
X103745000Y-75169283D01*
X94471973Y-51016095D02*
X97281217Y-51016095D01*
X120988709Y-84751291D02*
X120311291Y-84751291D01*
X101573426Y-52096574D02*
X103745000Y-49925000D01*
X94566249Y-34014032D02*
X96965700Y-34014032D01*
X100330000Y-40640000D02*
X101600000Y-40640000D01*
X126111347Y-94993612D02*
X126111347Y-96178123D01*
X123292449Y-94082449D02*
X125200184Y-94082449D01*
X99060000Y-36706992D02*
X99060000Y-39370000D01*
%TO.N,index_home*%
X92779223Y-48164223D02*
X92779223Y-55986297D01*
X92195000Y-47580000D02*
X92779223Y-48164223D01*
X93535558Y-56742632D02*
X96112632Y-56742632D01*
X96112632Y-56742632D02*
X97120000Y-57750000D01*
X97120000Y-57750000D02*
X97120000Y-58530000D01*
X92779223Y-55986297D02*
X93535558Y-56742632D01*
X97120000Y-58530000D02*
X99280000Y-58530000D01*
%TO.N,index_top*%
X95629455Y-39370000D02*
X97120000Y-40860545D01*
X92195000Y-30580000D02*
X92710000Y-31095000D01*
X93980000Y-39370000D02*
X95629455Y-39370000D01*
X97120000Y-40860545D02*
X97120000Y-41530000D01*
X92710000Y-38100000D02*
X93980000Y-39370000D01*
X97120000Y-41530000D02*
X99280000Y-41530000D01*
X92710000Y-31095000D02*
X92710000Y-38100000D01*
%TO.N,inner_bottom*%
X110742686Y-67127686D02*
X110742686Y-74217284D01*
X115120000Y-76800570D02*
X115120000Y-77530000D01*
X110195000Y-66580000D02*
X110742686Y-67127686D01*
X110742686Y-74217284D02*
X112039906Y-75514504D01*
X112039906Y-75514504D02*
X113833934Y-75514504D01*
X113833934Y-75514504D02*
X115120000Y-76800570D01*
X117280000Y-77530000D02*
X115120000Y-77530000D01*
%TO.N,P14*%
X121745000Y-52017662D02*
X119735209Y-54027453D01*
X121745000Y-68780000D02*
X121745000Y-69038661D01*
X115235849Y-36830000D02*
X119695000Y-36830000D01*
X121745000Y-34780000D02*
X121745000Y-51780000D01*
X121745000Y-51780000D02*
X121745000Y-56013204D01*
X114248166Y-35842317D02*
X115235849Y-36830000D01*
X112547071Y-35810884D02*
X112578504Y-35842317D01*
X121745000Y-68780000D02*
X121745000Y-79835000D01*
X119695000Y-36830000D02*
X121745000Y-34780000D01*
X121745000Y-51780000D02*
X121745000Y-52017662D01*
X116356438Y-54027453D02*
X115366108Y-53037123D01*
X121745000Y-56013204D02*
X125401796Y-59670000D01*
X137160000Y-95250000D02*
X140970000Y-95250000D01*
X115366108Y-53037123D02*
X112424247Y-53037123D01*
X145207211Y-109018636D02*
X145207211Y-110017352D01*
X121745000Y-79835000D02*
X137160000Y-95250000D01*
X116840000Y-71120000D02*
X115570000Y-69850000D01*
X112653532Y-69850000D02*
X112453913Y-70049619D01*
X119735209Y-54027453D02*
X116356438Y-54027453D01*
X128350000Y-59670000D02*
X139840000Y-59670000D01*
X121745000Y-69038661D02*
X119663661Y-71120000D01*
X142353733Y-106165158D02*
X145207211Y-109018636D01*
X146856219Y-111666360D02*
X150065817Y-111666360D01*
X115570000Y-69850000D02*
X112653532Y-69850000D01*
X150065817Y-104345817D02*
X150065817Y-111666360D01*
X145207211Y-110017352D02*
X146856219Y-111666360D01*
X119663661Y-71120000D02*
X116840000Y-71120000D01*
X121745000Y-51780000D02*
X121745000Y-68780000D01*
X112578504Y-35842317D02*
X114248166Y-35842317D01*
X139840000Y-59670000D02*
X141090000Y-58420000D01*
X140970000Y-95250000D02*
X150065817Y-104345817D01*
X125401796Y-59670000D02*
X128350000Y-59670000D01*
%TO.N,inner_home*%
X110195000Y-49580000D02*
X110909625Y-50294625D01*
X113816677Y-58420000D02*
X115120000Y-59723323D01*
X115120000Y-59723323D02*
X115120000Y-60530000D01*
X112039910Y-58420000D02*
X113816677Y-58420000D01*
X110909625Y-57289715D02*
X112039910Y-58420000D01*
X110909625Y-50294625D02*
X110909625Y-57289715D01*
X115120000Y-60530000D02*
X117280000Y-60530000D01*
%TO.N,inner_top*%
X110902059Y-33287059D02*
X110902059Y-40613841D01*
X111753373Y-41465155D02*
X113055155Y-41465155D01*
X110902059Y-40613841D02*
X111753373Y-41465155D01*
X115120000Y-43530000D02*
X117280000Y-43530000D01*
X113055155Y-41465155D02*
X115120000Y-43530000D01*
X110195000Y-32580000D02*
X110902059Y-33287059D01*
%TO.N,near_thumb*%
X98776474Y-86161474D02*
X98776474Y-93292775D01*
X98776474Y-93292775D02*
X100021730Y-94538031D01*
X98195000Y-85580000D02*
X98776474Y-86161474D01*
X103120000Y-96530000D02*
X105280000Y-96530000D01*
X103120000Y-95419140D02*
X103120000Y-96530000D01*
X100021730Y-94538031D02*
X102238891Y-94538031D01*
X102238891Y-94538031D02*
X103120000Y-95419140D01*
%TO.N,P7*%
X129540000Y-105410000D02*
X133695637Y-109565637D01*
X116844626Y-99060000D02*
X117580267Y-99795641D01*
X97660000Y-96530000D02*
X99820000Y-96530000D01*
X142389189Y-58469189D02*
X142389189Y-58020985D01*
X97660000Y-96530000D02*
X100190000Y-99060000D01*
X100190000Y-99060000D02*
X116844626Y-99060000D01*
X139185718Y-58420000D02*
X125850000Y-58420000D01*
X136848108Y-111066099D02*
X136794796Y-111066099D01*
X142389189Y-58020985D02*
X141587393Y-57219189D01*
X117580267Y-99795641D02*
X118773834Y-99795641D01*
X118773834Y-99795641D02*
X119582984Y-100604791D01*
X141587393Y-57219189D02*
X140386529Y-57219189D01*
X124388193Y-105410000D02*
X129540000Y-105410000D01*
X136794796Y-111066099D02*
X135294334Y-109565637D01*
X119582984Y-100604791D02*
X124388193Y-105410000D01*
X133695637Y-109565637D02*
X135294334Y-109565637D01*
X143590000Y-59670000D02*
X142389189Y-58469189D01*
X140386529Y-57219189D02*
X139185718Y-58420000D01*
%TO.N,home_thumb*%
X120650000Y-94289426D02*
X120650000Y-98279424D01*
X120650000Y-98279424D02*
X122642690Y-100272114D01*
X123836257Y-101840993D02*
X124645407Y-102650143D01*
X122642690Y-100272114D02*
X122642690Y-101840993D01*
X122178252Y-92761174D02*
X120650000Y-94289426D01*
X122178252Y-89843392D02*
X122178252Y-92761174D01*
X122642690Y-101840993D02*
X123836257Y-101840993D01*
%TO.N,far_thumb*%
X139419290Y-106960710D02*
X143285690Y-103094310D01*
X139419290Y-113502519D02*
X139419290Y-106960710D01*
X140775704Y-114858933D02*
X139419290Y-113502519D01*
X143285690Y-103094310D02*
X143285690Y-102060508D01*
%TO.N,RAW*%
X137180000Y-36810000D02*
X138430000Y-35560000D01*
X128350000Y-36810000D02*
X137180000Y-36810000D01*
X138430000Y-35560000D02*
X141090000Y-35560000D01*
D34*
%TO.N,GND*%
X143590000Y-41890000D02*
X143590000Y-44430000D01*
X139840000Y-39350000D02*
X128350000Y-39350000D01*
X128350000Y-39350000D02*
X127140000Y-39350000D01*
X141090000Y-38100000D02*
X139840000Y-39350000D01*
X127140000Y-39350000D02*
X125850000Y-40640000D01*
X125850000Y-40640000D02*
X125850000Y-43180000D01*
D33*
%TO.N,RST*%
X141090000Y-40640000D02*
X141090000Y-40693117D01*
X141090000Y-40693117D02*
X139893117Y-41890000D01*
X139893117Y-41890000D02*
X128350000Y-41890000D01*
D34*
%TO.N,VCC*%
X139840000Y-44430000D02*
X141090000Y-43180000D01*
X128350000Y-44430000D02*
X139840000Y-44430000D01*
D33*
%TO.N,P21*%
X128350000Y-46970000D02*
X139893117Y-46970000D01*
X139893117Y-46970000D02*
X141090000Y-45773117D01*
X141090000Y-45773117D02*
X141090000Y-45720000D01*
%TO.N,P16*%
X139840000Y-62210000D02*
X141090000Y-60960000D01*
X128350000Y-62210000D02*
X139840000Y-62210000D01*
%TO.N,P10*%
X139893117Y-64750000D02*
X141090000Y-63553117D01*
X141090000Y-63553117D02*
X141090000Y-63500000D01*
X128350000Y-64750000D02*
X139893117Y-64750000D01*
%TO.N,P1*%
X142515480Y-34565480D02*
X142515480Y-35735480D01*
X139064282Y-34290000D02*
X142240000Y-34290000D01*
X142515480Y-35735480D02*
X143590000Y-36810000D01*
X125850000Y-35560000D02*
X137794282Y-35560000D01*
X142240000Y-34290000D02*
X142515480Y-34565480D01*
X137794282Y-35560000D02*
X139064282Y-34290000D01*
%TO.N,P2*%
X141587393Y-44519189D02*
X140592607Y-44519189D01*
X134620000Y-67310000D02*
X135890000Y-66040000D01*
X138430000Y-66040000D02*
X139700000Y-66040000D01*
X140592607Y-44519189D02*
X139391796Y-45720000D01*
X135270000Y-79390000D02*
X134620000Y-78740000D01*
X139391796Y-45720000D02*
X125850000Y-45720000D01*
X135270000Y-82930000D02*
X135270000Y-79390000D01*
X135890000Y-66040000D02*
X138430000Y-66040000D01*
X143590000Y-46970000D02*
X143590000Y-46521796D01*
X134620000Y-71120000D02*
X134620000Y-67310000D01*
X143590000Y-46521796D02*
X141587393Y-44519189D01*
X134620000Y-78740000D02*
X134620000Y-71120000D01*
%TO.N,P3*%
X144780000Y-71120000D02*
X143510000Y-69850000D01*
X143590000Y-49061796D02*
X141587393Y-47059189D01*
X139391796Y-48260000D02*
X125850000Y-48260000D01*
X144780000Y-74470978D02*
X144780000Y-71120000D01*
X139270000Y-82930000D02*
X143510000Y-78690000D01*
X140592607Y-47059189D02*
X139391796Y-48260000D01*
X144790811Y-66029189D02*
X144790811Y-50710811D01*
X143510000Y-75740978D02*
X144780000Y-74470978D01*
X141587393Y-47059189D02*
X140592607Y-47059189D01*
X144790811Y-50710811D02*
X143590000Y-49510000D01*
X143590000Y-49510000D02*
X143590000Y-49061796D01*
X143510000Y-69850000D02*
X143510000Y-67310000D01*
X143510000Y-67310000D02*
X144790811Y-66029189D01*
X143510000Y-78690000D02*
X143510000Y-75740978D01*
%TO.N,P8*%
X143590000Y-61659769D02*
X141689420Y-59759189D01*
X141689420Y-59759189D02*
X140386529Y-59759189D01*
X143590000Y-62210000D02*
X143590000Y-61659769D01*
X139185718Y-60960000D02*
X125850000Y-60960000D01*
X140386529Y-59759189D02*
X139185718Y-60960000D01*
%TO.N,P9*%
X140592607Y-62299189D02*
X141587393Y-62299189D01*
X125850000Y-63500000D02*
X139391796Y-63500000D01*
X141587393Y-62299189D02*
X143590000Y-64301796D01*
X143590000Y-64301796D02*
X143590000Y-64750000D01*
X139391796Y-63500000D02*
X140592607Y-62299189D01*
D34*
%TO.N,Bplus*%
X136970000Y-73030380D02*
X137789620Y-73030380D01*
X141145380Y-73030380D02*
X141395000Y-73280000D01*
X136970000Y-73030380D02*
X141145380Y-73030380D01*
X137789620Y-73030380D02*
X138430000Y-72390000D01*
%TO.N,Bminus*%
X125850000Y-33020000D02*
X138430000Y-33020000D01*
X143590000Y-33100000D02*
X143590000Y-34270000D01*
X142240000Y-31750000D02*
X143590000Y-33100000D01*
X138430000Y-33020000D02*
X139700000Y-31750000D01*
X139700000Y-31750000D02*
X142240000Y-31750000D01*
%TO.N,Braw*%
X136970000Y-72029620D02*
X136799620Y-72029620D01*
X138860000Y-70280000D02*
X137110380Y-72029620D01*
X134596332Y-56530000D02*
X134593053Y-56526721D01*
X136470000Y-56530000D02*
X134596332Y-56530000D01*
X136799620Y-72029620D02*
X135890000Y-71120000D01*
X135890000Y-71120000D02*
X135890000Y-67310000D01*
X137110380Y-72029620D02*
X136970000Y-72029620D01*
X138860000Y-70280000D02*
X141395000Y-70280000D01*
%TD*%
M02*
