%TF.GenerationSoftware,KiCad,Pcbnew,(6.0.4-0)*%
%TF.CreationDate,2022-05-03T20:10:54+08:00*%
%TF.ProjectId,board,626f6172-642e-46b6-9963-61645f706362,v1.0.0*%
%TF.SameCoordinates,Original*%
%TF.FileFunction,Legend,Bot*%
%TF.FilePolarity,Positive*%
%FSLAX46Y46*%
G04 Gerber Fmt 4.6, Leading zero omitted, Abs format (unit mm)*
G04 Created by KiCad (PCBNEW (6.0.4-0)) date 2022-05-03 20:10:54*
%MOMM*%
%LPD*%
G01*
G04 APERTURE LIST*
G04 Aperture macros list*
%AMRoundRect*
0 Rectangle with rounded corners*
0 $1 Rounding radius*
0 $2 $3 $4 $5 $6 $7 $8 $9 X,Y pos of 4 corners*
0 Add a 4 corners polygon primitive as box body*
4,1,4,$2,$3,$4,$5,$6,$7,$8,$9,$2,$3,0*
0 Add four circle primitives for the rounded corners*
1,1,$1+$1,$2,$3*
1,1,$1+$1,$4,$5*
1,1,$1+$1,$6,$7*
1,1,$1+$1,$8,$9*
0 Add four rect primitives between the rounded corners*
20,1,$1+$1,$2,$3,$4,$5,0*
20,1,$1+$1,$4,$5,$6,$7,0*
20,1,$1+$1,$6,$7,$8,$9,0*
20,1,$1+$1,$8,$9,$2,$3,0*%
G04 Aperture macros list end*
%ADD10C,0.150000*%
%ADD11C,0.100000*%
%ADD12R,1.752600X1.752600*%
%ADD13C,1.752600*%
%ADD14RoundRect,0.375000X-0.375000X-0.375000X0.375000X-0.375000X0.375000X0.375000X-0.375000X0.375000X0*%
G04 APERTURE END LIST*
D10*
X76133333Y-80666481D02*
X76080997Y-79667851D01*
X75785503Y-80398603D01*
X75415244Y-79702742D01*
X75467580Y-80701371D01*
X74609120Y-80698677D02*
X74706719Y-80741246D01*
X74896934Y-80731278D01*
X74989550Y-80678740D01*
X75032119Y-80581140D01*
X75012182Y-80200709D01*
X74959644Y-80108094D01*
X74862044Y-80065525D01*
X74671829Y-80075493D01*
X74579213Y-80128032D01*
X74536644Y-80225631D01*
X74541628Y-80320739D01*
X75022150Y-80390925D01*
X74136074Y-80771153D02*
X74101183Y-80105400D01*
X74111152Y-80295615D02*
X74058614Y-80202999D01*
X74008568Y-80157938D01*
X73910968Y-80115368D01*
X73815860Y-80120353D01*
X73055000Y-80160228D02*
X73097367Y-80968642D01*
X73149905Y-81061258D01*
X73199951Y-81106319D01*
X73297551Y-81148889D01*
X73440212Y-81141412D01*
X73532828Y-81088874D01*
X73087398Y-80778427D02*
X73184998Y-80820996D01*
X73375213Y-80811028D01*
X73467829Y-80758490D01*
X73512890Y-80708444D01*
X73555460Y-80610844D01*
X73540507Y-80325521D01*
X73487968Y-80232906D01*
X73437922Y-80187844D01*
X73340323Y-80145275D01*
X73150107Y-80155243D01*
X73057492Y-80207782D01*
X72471691Y-80858379D02*
X72564307Y-80805841D01*
X72609368Y-80755795D01*
X72651938Y-80658195D01*
X72636985Y-80372873D01*
X72584446Y-80280257D01*
X72534400Y-80235196D01*
X72436801Y-80192626D01*
X72294139Y-80200103D01*
X72201524Y-80252641D01*
X72156462Y-80302687D01*
X72113893Y-80400287D01*
X72128846Y-80685609D01*
X72181384Y-80778225D01*
X72231430Y-80823286D01*
X72329030Y-80865856D01*
X72471691Y-80858379D01*
X71710831Y-80898254D02*
X71658495Y-79899625D01*
X71678432Y-80280055D02*
X71580832Y-80237486D01*
X71390617Y-80247454D01*
X71298002Y-80299993D01*
X71252940Y-80350039D01*
X71210371Y-80447638D01*
X71225324Y-80732961D01*
X71277862Y-80825576D01*
X71327908Y-80870638D01*
X71425508Y-80913207D01*
X71615723Y-80903239D01*
X71708338Y-80850701D01*
X70664647Y-80953082D02*
X70757263Y-80900544D01*
X70802324Y-80850498D01*
X70844894Y-80752899D01*
X70829941Y-80467576D01*
X70777402Y-80374960D01*
X70727356Y-80329899D01*
X70629757Y-80287329D01*
X70487095Y-80294806D01*
X70394480Y-80347344D01*
X70349418Y-80397390D01*
X70306849Y-80494990D01*
X70321802Y-80780313D01*
X70374340Y-80872928D01*
X70424386Y-80917990D01*
X70521986Y-80960559D01*
X70664647Y-80953082D01*
X69475803Y-81015387D02*
X69448389Y-80492296D01*
X69490958Y-80394696D01*
X69583573Y-80342158D01*
X69773789Y-80332189D01*
X69871388Y-80374758D01*
X69473310Y-80967833D02*
X69570910Y-81010403D01*
X69808679Y-80997942D01*
X69901295Y-80945404D01*
X69943864Y-80847804D01*
X69938880Y-80752696D01*
X69886341Y-80660081D01*
X69788742Y-80617512D01*
X69550973Y-80629972D01*
X69453373Y-80587403D01*
X69000265Y-81040309D02*
X68965374Y-80374556D01*
X68975343Y-80564771D02*
X68922805Y-80472156D01*
X68872759Y-80427094D01*
X68775159Y-80384525D01*
X68680051Y-80389509D01*
X67954081Y-81095137D02*
X67901746Y-80096508D01*
X67951589Y-81047583D02*
X68049189Y-81090153D01*
X68239404Y-81080184D01*
X68332020Y-81027646D01*
X68377081Y-80977600D01*
X68419651Y-80880000D01*
X68404697Y-80594677D01*
X68352159Y-80502062D01*
X68302113Y-80457000D01*
X68204514Y-80414431D01*
X68014298Y-80424400D01*
X67921683Y-80476938D01*
X66717683Y-81159934D02*
X66682792Y-80494181D01*
X66692761Y-80684396D02*
X66640223Y-80591781D01*
X66590177Y-80546719D01*
X66492577Y-80504150D01*
X66397470Y-80509134D01*
X65716561Y-81164716D02*
X65814161Y-81207286D01*
X66004376Y-81197317D01*
X66096992Y-81144779D01*
X66139561Y-81047179D01*
X66119623Y-80666749D01*
X66067085Y-80574133D01*
X65969486Y-80531564D01*
X65779270Y-80541533D01*
X65686655Y-80594071D01*
X65644086Y-80691671D01*
X65649070Y-80786778D01*
X66129592Y-80856964D01*
X65303733Y-80566455D02*
X65100854Y-81244668D01*
X64828195Y-80591376D01*
X64240104Y-80288406D02*
X64144996Y-80293391D01*
X64052381Y-80345929D01*
X64007319Y-80395975D01*
X63964750Y-80493574D01*
X63927165Y-80686282D01*
X63939626Y-80924051D01*
X63997148Y-81111774D01*
X64049687Y-81204389D01*
X64099733Y-81249451D01*
X64197332Y-81292020D01*
X64292440Y-81287036D01*
X64385055Y-81234498D01*
X64430117Y-81184452D01*
X64472686Y-81086852D01*
X64510271Y-80894144D01*
X64497810Y-80656376D01*
X64440288Y-80468653D01*
X64387750Y-80376037D01*
X64337704Y-80330976D01*
X64240104Y-80288406D01*
X62770921Y-80460772D02*
X62720875Y-80415710D01*
X62623275Y-80373141D01*
X62385506Y-80385602D01*
X62292891Y-80438140D01*
X62247829Y-80488186D01*
X62205260Y-80585785D01*
X62210244Y-80680893D01*
X62265275Y-80821062D01*
X62865826Y-81361801D01*
X62247627Y-81394200D01*
X61577092Y-80427969D02*
X61481984Y-80432953D01*
X61389369Y-80485491D01*
X61344307Y-80535537D01*
X61301738Y-80633137D01*
X61264153Y-80825844D01*
X61276614Y-81063613D01*
X61334136Y-81251336D01*
X61386674Y-81343952D01*
X61436720Y-81389013D01*
X61534320Y-81431583D01*
X61629428Y-81426598D01*
X61722043Y-81374060D01*
X61767105Y-81324014D01*
X61809674Y-81226414D01*
X61847259Y-81033707D01*
X61834798Y-80795938D01*
X61777276Y-80608215D01*
X61724738Y-80515600D01*
X61674692Y-80470538D01*
X61577092Y-80427969D01*
X60868769Y-80560459D02*
X60818723Y-80515398D01*
X60721124Y-80472828D01*
X60483355Y-80485289D01*
X60390739Y-80537827D01*
X60345678Y-80587873D01*
X60303108Y-80685473D01*
X60308093Y-80780581D01*
X60363123Y-80920750D01*
X60963675Y-81461489D01*
X60345475Y-81493887D01*
X59917694Y-80610303D02*
X59867648Y-80565241D01*
X59770048Y-80522672D01*
X59532279Y-80535133D01*
X59439664Y-80587671D01*
X59394602Y-80637717D01*
X59352033Y-80735317D01*
X59357017Y-80830424D01*
X59412047Y-80970593D01*
X60012599Y-81511333D01*
X59394400Y-81543731D01*
X58946478Y-81185730D02*
X58185618Y-81225606D01*
X57487466Y-80642297D02*
X57392359Y-80647281D01*
X57299743Y-80699819D01*
X57254682Y-80749865D01*
X57212112Y-80847465D01*
X57174527Y-81040173D01*
X57186988Y-81277941D01*
X57244511Y-81465664D01*
X57297049Y-81558280D01*
X57347095Y-81603341D01*
X57444694Y-81645911D01*
X57539802Y-81640926D01*
X57632417Y-81588388D01*
X57677479Y-81538342D01*
X57720048Y-81440743D01*
X57757633Y-81248035D01*
X57745173Y-81010266D01*
X57687650Y-80822543D01*
X57635112Y-80729928D01*
X57585066Y-80684866D01*
X57487466Y-80642297D01*
X56251068Y-80707094D02*
X56726605Y-80682172D01*
X56799081Y-81155218D01*
X56749035Y-81110156D01*
X56651435Y-81067587D01*
X56413666Y-81080048D01*
X56321051Y-81132586D01*
X56275990Y-81182632D01*
X56233420Y-81280231D01*
X56245881Y-81518000D01*
X56298419Y-81610616D01*
X56348465Y-81655677D01*
X56446065Y-81698247D01*
X56683834Y-81685786D01*
X56776449Y-81633248D01*
X56821511Y-81583202D01*
X55807928Y-81350215D02*
X55047068Y-81390090D01*
X54348916Y-80806781D02*
X54253809Y-80811766D01*
X54161193Y-80864304D01*
X54116132Y-80914350D01*
X54073562Y-81011950D01*
X54035977Y-81204657D01*
X54048438Y-81442426D01*
X54105961Y-81630149D01*
X54158499Y-81722764D01*
X54208545Y-81767826D01*
X54306145Y-81810395D01*
X54401252Y-81805411D01*
X54493867Y-81752873D01*
X54538929Y-81702827D01*
X54581498Y-81605227D01*
X54619084Y-81412520D01*
X54606623Y-81174751D01*
X54549100Y-80987028D01*
X54496562Y-80894412D01*
X54446516Y-80849351D01*
X54348916Y-80806781D01*
X53683163Y-80841672D02*
X53064964Y-80874070D01*
X53417778Y-81237055D01*
X53275117Y-81244532D01*
X53182501Y-81297070D01*
X53137440Y-81347116D01*
X53094870Y-81444716D01*
X53107331Y-81682485D01*
X53159869Y-81775100D01*
X53209915Y-81820162D01*
X53307515Y-81862731D01*
X53592838Y-81847778D01*
X53685453Y-81795240D01*
X53730515Y-81745194D01*
X60001752Y-83124111D02*
X59949416Y-82125481D01*
X59969354Y-82505912D02*
X59871754Y-82463342D01*
X59681539Y-82473311D01*
X59588924Y-82525849D01*
X59543862Y-82575895D01*
X59501293Y-82673495D01*
X59516246Y-82958818D01*
X59568784Y-83051433D01*
X59618830Y-83096495D01*
X59716430Y-83139064D01*
X59906645Y-83129095D01*
X59999260Y-83076557D01*
X59158447Y-82500725D02*
X58955569Y-83178939D01*
X58682910Y-82525647D02*
X58955569Y-83178939D01*
X59063138Y-83411724D01*
X59113184Y-83456785D01*
X59210783Y-83499355D01*
X57576509Y-83251213D02*
X57524173Y-82252583D01*
X57228680Y-82983335D01*
X56858420Y-82287474D01*
X56910756Y-83286103D01*
X56435218Y-83311025D02*
X56400328Y-82645272D01*
X56382882Y-82312396D02*
X56432928Y-82357457D01*
X56387867Y-82407503D01*
X56337821Y-82362442D01*
X56382882Y-82312396D01*
X56387867Y-82407503D01*
X55959680Y-83335947D02*
X55924790Y-82670194D01*
X55907345Y-82337318D02*
X55957391Y-82382379D01*
X55912329Y-82432425D01*
X55862283Y-82387363D01*
X55907345Y-82337318D01*
X55912329Y-82432425D01*
X55021268Y-82717546D02*
X55063635Y-83525960D01*
X55116173Y-83618575D01*
X55166219Y-83663637D01*
X55263819Y-83706206D01*
X55406480Y-83698730D01*
X55499096Y-83646192D01*
X55053666Y-83335745D02*
X55151266Y-83378314D01*
X55341481Y-83368345D01*
X55434097Y-83315807D01*
X55479158Y-83265761D01*
X55521728Y-83168162D01*
X55506775Y-82882839D01*
X55454236Y-82790223D01*
X55404190Y-82745162D01*
X55306591Y-82702592D01*
X55116375Y-82712561D01*
X55023760Y-82765099D01*
X54437959Y-83415697D02*
X54530575Y-83363159D01*
X54575636Y-83313113D01*
X54618206Y-83215513D01*
X54603253Y-82930190D01*
X54550714Y-82837575D01*
X54500668Y-82792513D01*
X54403069Y-82749944D01*
X54260407Y-82757421D01*
X54167792Y-82809959D01*
X54122730Y-82860005D01*
X54080161Y-82957605D01*
X54095114Y-83242927D01*
X54147652Y-83335543D01*
X54197698Y-83380604D01*
X54295298Y-83423174D01*
X54437959Y-83415697D01*
X53642208Y-82789819D02*
X53677099Y-83455572D01*
X53647192Y-82884927D02*
X53597146Y-82839865D01*
X53499547Y-82797296D01*
X53356885Y-82804772D01*
X53264270Y-82857310D01*
X53221701Y-82954910D01*
X53249115Y-83478002D01*
%TO.C,PAD1*%
X134658095Y-56472857D02*
X134543809Y-56510952D01*
X134505714Y-56549047D01*
X134467619Y-56625238D01*
X134467619Y-56739523D01*
X134505714Y-56815714D01*
X134543809Y-56853809D01*
X134620000Y-56891904D01*
X134924761Y-56891904D01*
X134924761Y-56091904D01*
X134658095Y-56091904D01*
X134581904Y-56130000D01*
X134543809Y-56168095D01*
X134505714Y-56244285D01*
X134505714Y-56320476D01*
X134543809Y-56396666D01*
X134581904Y-56434761D01*
X134658095Y-56472857D01*
X134924761Y-56472857D01*
X134124761Y-56587142D02*
X133515238Y-56587142D01*
X133820000Y-56891904D02*
X133820000Y-56282380D01*
%TO.C,MCU1*%
X129279523Y-40240000D02*
X129355714Y-40201904D01*
X129470000Y-40201904D01*
X129584285Y-40240000D01*
X129660476Y-40316190D01*
X129698571Y-40392380D01*
X129736666Y-40544761D01*
X129736666Y-40659047D01*
X129698571Y-40811428D01*
X129660476Y-40887619D01*
X129584285Y-40963809D01*
X129470000Y-41001904D01*
X129393809Y-41001904D01*
X129279523Y-40963809D01*
X129241428Y-40925714D01*
X129241428Y-40659047D01*
X129393809Y-40659047D01*
X128898571Y-41001904D02*
X128898571Y-40201904D01*
X128441428Y-41001904D01*
X128441428Y-40201904D01*
X128060476Y-41001904D02*
X128060476Y-40201904D01*
X127870000Y-40201904D01*
X127755714Y-40240000D01*
X127679523Y-40316190D01*
X127641428Y-40392380D01*
X127603333Y-40544761D01*
X127603333Y-40659047D01*
X127641428Y-40811428D01*
X127679523Y-40887619D01*
X127755714Y-40963809D01*
X127870000Y-41001904D01*
X128060476Y-41001904D01*
X129279523Y-42780000D02*
X129355714Y-42741904D01*
X129470000Y-42741904D01*
X129584285Y-42780000D01*
X129660476Y-42856190D01*
X129698571Y-42932380D01*
X129736666Y-43084761D01*
X129736666Y-43199047D01*
X129698571Y-43351428D01*
X129660476Y-43427619D01*
X129584285Y-43503809D01*
X129470000Y-43541904D01*
X129393809Y-43541904D01*
X129279523Y-43503809D01*
X129241428Y-43465714D01*
X129241428Y-43199047D01*
X129393809Y-43199047D01*
X128898571Y-43541904D02*
X128898571Y-42741904D01*
X128441428Y-43541904D01*
X128441428Y-42741904D01*
X128060476Y-43541904D02*
X128060476Y-42741904D01*
X127870000Y-42741904D01*
X127755714Y-42780000D01*
X127679523Y-42856190D01*
X127641428Y-42932380D01*
X127603333Y-43084761D01*
X127603333Y-43199047D01*
X127641428Y-43351428D01*
X127679523Y-43427619D01*
X127755714Y-43503809D01*
X127870000Y-43541904D01*
X128060476Y-43541904D01*
X129641428Y-51161904D02*
X129641428Y-50361904D01*
X129336666Y-50361904D01*
X129260476Y-50400000D01*
X129222380Y-50438095D01*
X129184285Y-50514285D01*
X129184285Y-50628571D01*
X129222380Y-50704761D01*
X129260476Y-50742857D01*
X129336666Y-50780952D01*
X129641428Y-50780952D01*
X128689047Y-50361904D02*
X128612857Y-50361904D01*
X128536666Y-50400000D01*
X128498571Y-50438095D01*
X128460476Y-50514285D01*
X128422380Y-50666666D01*
X128422380Y-50857142D01*
X128460476Y-51009523D01*
X128498571Y-51085714D01*
X128536666Y-51123809D01*
X128612857Y-51161904D01*
X128689047Y-51161904D01*
X128765238Y-51123809D01*
X128803333Y-51085714D01*
X128841428Y-51009523D01*
X128879523Y-50857142D01*
X128879523Y-50666666D01*
X128841428Y-50514285D01*
X128803333Y-50438095D01*
X128765238Y-50400000D01*
X128689047Y-50361904D01*
X127736666Y-50628571D02*
X127736666Y-51161904D01*
X127927142Y-50323809D02*
X128117619Y-50895238D01*
X127622380Y-50895238D01*
X129641428Y-63861904D02*
X129641428Y-63061904D01*
X129336666Y-63061904D01*
X129260476Y-63100000D01*
X129222380Y-63138095D01*
X129184285Y-63214285D01*
X129184285Y-63328571D01*
X129222380Y-63404761D01*
X129260476Y-63442857D01*
X129336666Y-63480952D01*
X129641428Y-63480952D01*
X128689047Y-63061904D02*
X128612857Y-63061904D01*
X128536666Y-63100000D01*
X128498571Y-63138095D01*
X128460476Y-63214285D01*
X128422380Y-63366666D01*
X128422380Y-63557142D01*
X128460476Y-63709523D01*
X128498571Y-63785714D01*
X128536666Y-63823809D01*
X128612857Y-63861904D01*
X128689047Y-63861904D01*
X128765238Y-63823809D01*
X128803333Y-63785714D01*
X128841428Y-63709523D01*
X128879523Y-63557142D01*
X128879523Y-63366666D01*
X128841428Y-63214285D01*
X128803333Y-63138095D01*
X128765238Y-63100000D01*
X128689047Y-63061904D01*
X128041428Y-63861904D02*
X127889047Y-63861904D01*
X127812857Y-63823809D01*
X127774761Y-63785714D01*
X127698571Y-63671428D01*
X127660476Y-63519047D01*
X127660476Y-63214285D01*
X127698571Y-63138095D01*
X127736666Y-63100000D01*
X127812857Y-63061904D01*
X127965238Y-63061904D01*
X128041428Y-63100000D01*
X128079523Y-63138095D01*
X128117619Y-63214285D01*
X128117619Y-63404761D01*
X128079523Y-63480952D01*
X128041428Y-63519047D01*
X127965238Y-63557142D01*
X127812857Y-63557142D01*
X127736666Y-63519047D01*
X127698571Y-63480952D01*
X127660476Y-63404761D01*
X132930054Y-38740256D02*
X132968149Y-38702161D01*
X133044339Y-38587875D01*
X133082435Y-38511685D01*
X133120530Y-38397399D01*
X133158625Y-38206923D01*
X133158625Y-38054542D01*
X133120530Y-37864066D01*
X133082435Y-37749780D01*
X133044339Y-37673590D01*
X132968149Y-37559304D01*
X132930054Y-37521209D01*
X132206244Y-37673590D02*
X132282435Y-37635494D01*
X132396720Y-37635494D01*
X132511006Y-37673590D01*
X132587196Y-37749780D01*
X132625292Y-37825970D01*
X132663387Y-37978351D01*
X132663387Y-38092637D01*
X132625292Y-38245018D01*
X132587196Y-38321209D01*
X132511006Y-38397399D01*
X132396720Y-38435494D01*
X132320530Y-38435494D01*
X132206244Y-38397399D01*
X132168149Y-38359304D01*
X132168149Y-38092637D01*
X132320530Y-38092637D01*
X131825292Y-38435494D02*
X131825292Y-37635494D01*
X131368149Y-38435494D01*
X131368149Y-37635494D01*
X130987196Y-38435494D02*
X130987196Y-37635494D01*
X130796720Y-37635494D01*
X130682435Y-37673590D01*
X130606244Y-37749780D01*
X130568149Y-37825970D01*
X130530054Y-37978351D01*
X130530054Y-38092637D01*
X130568149Y-38245018D01*
X130606244Y-38321209D01*
X130682435Y-38397399D01*
X130796720Y-38435494D01*
X130987196Y-38435494D01*
X130263387Y-38740256D02*
X130225292Y-38702161D01*
X130149101Y-38587875D01*
X130111006Y-38511685D01*
X130072911Y-38397399D01*
X130034816Y-38206923D01*
X130034816Y-38054542D01*
X130072911Y-37864066D01*
X130111006Y-37749780D01*
X130149101Y-37673590D01*
X130225292Y-37559304D01*
X130263387Y-37521209D01*
X129653863Y-38435494D02*
X129653863Y-37635494D01*
X129349101Y-37635494D01*
X129272911Y-37673590D01*
X129234816Y-37711685D01*
X129196720Y-37787875D01*
X129196720Y-37902161D01*
X129234816Y-37978351D01*
X129272911Y-38016447D01*
X129349101Y-38054542D01*
X129653863Y-38054542D01*
X128701482Y-37635494D02*
X128625292Y-37635494D01*
X128549101Y-37673590D01*
X128511006Y-37711685D01*
X128472911Y-37787875D01*
X128434816Y-37940256D01*
X128434816Y-38130732D01*
X128472911Y-38283113D01*
X128511006Y-38359304D01*
X128549101Y-38397399D01*
X128625292Y-38435494D01*
X128701482Y-38435494D01*
X128777673Y-38397399D01*
X128815768Y-38359304D01*
X128853863Y-38283113D01*
X128891958Y-38130732D01*
X128891958Y-37940256D01*
X128853863Y-37787875D01*
X128815768Y-37711685D01*
X128777673Y-37673590D01*
X128701482Y-37635494D01*
X127939577Y-37635494D02*
X127863387Y-37635494D01*
X127787196Y-37673590D01*
X127749101Y-37711685D01*
X127711006Y-37787875D01*
X127672911Y-37940256D01*
X127672911Y-38130732D01*
X127711006Y-38283113D01*
X127749101Y-38359304D01*
X127787196Y-38397399D01*
X127863387Y-38435494D01*
X127939577Y-38435494D01*
X128015768Y-38397399D01*
X128053863Y-38359304D01*
X128091958Y-38283113D01*
X128130054Y-38130732D01*
X128130054Y-37940256D01*
X128091958Y-37787875D01*
X128053863Y-37711685D01*
X128015768Y-37673590D01*
X127939577Y-37635494D01*
X138822380Y-35921904D02*
X139089047Y-35540952D01*
X139279523Y-35921904D02*
X139279523Y-35121904D01*
X138974761Y-35121904D01*
X138898571Y-35160000D01*
X138860476Y-35198095D01*
X138822380Y-35274285D01*
X138822380Y-35388571D01*
X138860476Y-35464761D01*
X138898571Y-35502857D01*
X138974761Y-35540952D01*
X139279523Y-35540952D01*
X138517619Y-35693333D02*
X138136666Y-35693333D01*
X138593809Y-35921904D02*
X138327142Y-35121904D01*
X138060476Y-35921904D01*
X137870000Y-35121904D02*
X137679523Y-35921904D01*
X137527142Y-35350476D01*
X137374761Y-35921904D01*
X137184285Y-35121904D01*
X139336666Y-42741904D02*
X139070000Y-43541904D01*
X138803333Y-42741904D01*
X138079523Y-43465714D02*
X138117619Y-43503809D01*
X138231904Y-43541904D01*
X138308095Y-43541904D01*
X138422380Y-43503809D01*
X138498571Y-43427619D01*
X138536666Y-43351428D01*
X138574761Y-43199047D01*
X138574761Y-43084761D01*
X138536666Y-42932380D01*
X138498571Y-42856190D01*
X138422380Y-42780000D01*
X138308095Y-42741904D01*
X138231904Y-42741904D01*
X138117619Y-42780000D01*
X138079523Y-42818095D01*
X137279523Y-43465714D02*
X137317619Y-43503809D01*
X137431904Y-43541904D01*
X137508095Y-43541904D01*
X137622380Y-43503809D01*
X137698571Y-43427619D01*
X137736666Y-43351428D01*
X137774761Y-43199047D01*
X137774761Y-43084761D01*
X137736666Y-42932380D01*
X137698571Y-42856190D01*
X137622380Y-42780000D01*
X137508095Y-42741904D01*
X137431904Y-42741904D01*
X137317619Y-42780000D01*
X137279523Y-42818095D01*
X138708095Y-41001904D02*
X138974761Y-40620952D01*
X139165238Y-41001904D02*
X139165238Y-40201904D01*
X138860476Y-40201904D01*
X138784285Y-40240000D01*
X138746190Y-40278095D01*
X138708095Y-40354285D01*
X138708095Y-40468571D01*
X138746190Y-40544761D01*
X138784285Y-40582857D01*
X138860476Y-40620952D01*
X139165238Y-40620952D01*
X138403333Y-40963809D02*
X138289047Y-41001904D01*
X138098571Y-41001904D01*
X138022380Y-40963809D01*
X137984285Y-40925714D01*
X137946190Y-40849523D01*
X137946190Y-40773333D01*
X137984285Y-40697142D01*
X138022380Y-40659047D01*
X138098571Y-40620952D01*
X138250952Y-40582857D01*
X138327142Y-40544761D01*
X138365238Y-40506666D01*
X138403333Y-40430476D01*
X138403333Y-40354285D01*
X138365238Y-40278095D01*
X138327142Y-40240000D01*
X138250952Y-40201904D01*
X138060476Y-40201904D01*
X137946190Y-40240000D01*
X137717619Y-40201904D02*
X137260476Y-40201904D01*
X137489047Y-41001904D02*
X137489047Y-40201904D01*
X129641428Y-53701904D02*
X129641428Y-52901904D01*
X129336666Y-52901904D01*
X129260476Y-52940000D01*
X129222380Y-52978095D01*
X129184285Y-53054285D01*
X129184285Y-53168571D01*
X129222380Y-53244761D01*
X129260476Y-53282857D01*
X129336666Y-53320952D01*
X129641428Y-53320952D01*
X128689047Y-52901904D02*
X128612857Y-52901904D01*
X128536666Y-52940000D01*
X128498571Y-52978095D01*
X128460476Y-53054285D01*
X128422380Y-53206666D01*
X128422380Y-53397142D01*
X128460476Y-53549523D01*
X128498571Y-53625714D01*
X128536666Y-53663809D01*
X128612857Y-53701904D01*
X128689047Y-53701904D01*
X128765238Y-53663809D01*
X128803333Y-53625714D01*
X128841428Y-53549523D01*
X128879523Y-53397142D01*
X128879523Y-53206666D01*
X128841428Y-53054285D01*
X128803333Y-52978095D01*
X128765238Y-52940000D01*
X128689047Y-52901904D01*
X127698571Y-52901904D02*
X128079523Y-52901904D01*
X128117619Y-53282857D01*
X128079523Y-53244761D01*
X128003333Y-53206666D01*
X127812857Y-53206666D01*
X127736666Y-53244761D01*
X127698571Y-53282857D01*
X127660476Y-53359047D01*
X127660476Y-53549523D01*
X127698571Y-53625714D01*
X127736666Y-53663809D01*
X127812857Y-53701904D01*
X128003333Y-53701904D01*
X128079523Y-53663809D01*
X128117619Y-53625714D01*
X129641428Y-56241904D02*
X129641428Y-55441904D01*
X129336666Y-55441904D01*
X129260476Y-55480000D01*
X129222380Y-55518095D01*
X129184285Y-55594285D01*
X129184285Y-55708571D01*
X129222380Y-55784761D01*
X129260476Y-55822857D01*
X129336666Y-55860952D01*
X129641428Y-55860952D01*
X128689047Y-55441904D02*
X128612857Y-55441904D01*
X128536666Y-55480000D01*
X128498571Y-55518095D01*
X128460476Y-55594285D01*
X128422380Y-55746666D01*
X128422380Y-55937142D01*
X128460476Y-56089523D01*
X128498571Y-56165714D01*
X128536666Y-56203809D01*
X128612857Y-56241904D01*
X128689047Y-56241904D01*
X128765238Y-56203809D01*
X128803333Y-56165714D01*
X128841428Y-56089523D01*
X128879523Y-55937142D01*
X128879523Y-55746666D01*
X128841428Y-55594285D01*
X128803333Y-55518095D01*
X128765238Y-55480000D01*
X128689047Y-55441904D01*
X127736666Y-55441904D02*
X127889047Y-55441904D01*
X127965238Y-55480000D01*
X128003333Y-55518095D01*
X128079523Y-55632380D01*
X128117619Y-55784761D01*
X128117619Y-56089523D01*
X128079523Y-56165714D01*
X128041428Y-56203809D01*
X127965238Y-56241904D01*
X127812857Y-56241904D01*
X127736666Y-56203809D01*
X127698571Y-56165714D01*
X127660476Y-56089523D01*
X127660476Y-55899047D01*
X127698571Y-55822857D01*
X127736666Y-55784761D01*
X127812857Y-55746666D01*
X127965238Y-55746666D01*
X128041428Y-55784761D01*
X128079523Y-55822857D01*
X128117619Y-55899047D01*
X129641428Y-48621904D02*
X129641428Y-47821904D01*
X129336666Y-47821904D01*
X129260476Y-47860000D01*
X129222380Y-47898095D01*
X129184285Y-47974285D01*
X129184285Y-48088571D01*
X129222380Y-48164761D01*
X129260476Y-48202857D01*
X129336666Y-48240952D01*
X129641428Y-48240952D01*
X128689047Y-47821904D02*
X128612857Y-47821904D01*
X128536666Y-47860000D01*
X128498571Y-47898095D01*
X128460476Y-47974285D01*
X128422380Y-48126666D01*
X128422380Y-48317142D01*
X128460476Y-48469523D01*
X128498571Y-48545714D01*
X128536666Y-48583809D01*
X128612857Y-48621904D01*
X128689047Y-48621904D01*
X128765238Y-48583809D01*
X128803333Y-48545714D01*
X128841428Y-48469523D01*
X128879523Y-48317142D01*
X128879523Y-48126666D01*
X128841428Y-47974285D01*
X128803333Y-47898095D01*
X128765238Y-47860000D01*
X128689047Y-47821904D01*
X128155714Y-47821904D02*
X127660476Y-47821904D01*
X127927142Y-48126666D01*
X127812857Y-48126666D01*
X127736666Y-48164761D01*
X127698571Y-48202857D01*
X127660476Y-48279047D01*
X127660476Y-48469523D01*
X127698571Y-48545714D01*
X127736666Y-48583809D01*
X127812857Y-48621904D01*
X128041428Y-48621904D01*
X128117619Y-48583809D01*
X128155714Y-48545714D01*
X129641428Y-61321904D02*
X129641428Y-60521904D01*
X129336666Y-60521904D01*
X129260476Y-60560000D01*
X129222380Y-60598095D01*
X129184285Y-60674285D01*
X129184285Y-60788571D01*
X129222380Y-60864761D01*
X129260476Y-60902857D01*
X129336666Y-60940952D01*
X129641428Y-60940952D01*
X128689047Y-60521904D02*
X128612857Y-60521904D01*
X128536666Y-60560000D01*
X128498571Y-60598095D01*
X128460476Y-60674285D01*
X128422380Y-60826666D01*
X128422380Y-61017142D01*
X128460476Y-61169523D01*
X128498571Y-61245714D01*
X128536666Y-61283809D01*
X128612857Y-61321904D01*
X128689047Y-61321904D01*
X128765238Y-61283809D01*
X128803333Y-61245714D01*
X128841428Y-61169523D01*
X128879523Y-61017142D01*
X128879523Y-60826666D01*
X128841428Y-60674285D01*
X128803333Y-60598095D01*
X128765238Y-60560000D01*
X128689047Y-60521904D01*
X127965238Y-60864761D02*
X128041428Y-60826666D01*
X128079523Y-60788571D01*
X128117619Y-60712380D01*
X128117619Y-60674285D01*
X128079523Y-60598095D01*
X128041428Y-60560000D01*
X127965238Y-60521904D01*
X127812857Y-60521904D01*
X127736666Y-60560000D01*
X127698571Y-60598095D01*
X127660476Y-60674285D01*
X127660476Y-60712380D01*
X127698571Y-60788571D01*
X127736666Y-60826666D01*
X127812857Y-60864761D01*
X127965238Y-60864761D01*
X128041428Y-60902857D01*
X128079523Y-60940952D01*
X128117619Y-61017142D01*
X128117619Y-61169523D01*
X128079523Y-61245714D01*
X128041428Y-61283809D01*
X127965238Y-61321904D01*
X127812857Y-61321904D01*
X127736666Y-61283809D01*
X127698571Y-61245714D01*
X127660476Y-61169523D01*
X127660476Y-61017142D01*
X127698571Y-60940952D01*
X127736666Y-60902857D01*
X127812857Y-60864761D01*
X139241428Y-51161904D02*
X139241428Y-50361904D01*
X138936666Y-50361904D01*
X138860476Y-50400000D01*
X138822380Y-50438095D01*
X138784285Y-50514285D01*
X138784285Y-50628571D01*
X138822380Y-50704761D01*
X138860476Y-50742857D01*
X138936666Y-50780952D01*
X139241428Y-50780952D01*
X138022380Y-51161904D02*
X138479523Y-51161904D01*
X138250952Y-51161904D02*
X138250952Y-50361904D01*
X138327142Y-50476190D01*
X138403333Y-50552380D01*
X138479523Y-50590476D01*
X137641428Y-51161904D02*
X137489047Y-51161904D01*
X137412857Y-51123809D01*
X137374761Y-51085714D01*
X137298571Y-50971428D01*
X137260476Y-50819047D01*
X137260476Y-50514285D01*
X137298571Y-50438095D01*
X137336666Y-50400000D01*
X137412857Y-50361904D01*
X137565238Y-50361904D01*
X137641428Y-50400000D01*
X137679523Y-50438095D01*
X137717619Y-50514285D01*
X137717619Y-50704761D01*
X137679523Y-50780952D01*
X137641428Y-50819047D01*
X137565238Y-50857142D01*
X137412857Y-50857142D01*
X137336666Y-50819047D01*
X137298571Y-50780952D01*
X137260476Y-50704761D01*
X139241428Y-56241904D02*
X139241428Y-55441904D01*
X138936666Y-55441904D01*
X138860476Y-55480000D01*
X138822380Y-55518095D01*
X138784285Y-55594285D01*
X138784285Y-55708571D01*
X138822380Y-55784761D01*
X138860476Y-55822857D01*
X138936666Y-55860952D01*
X139241428Y-55860952D01*
X138022380Y-56241904D02*
X138479523Y-56241904D01*
X138250952Y-56241904D02*
X138250952Y-55441904D01*
X138327142Y-55556190D01*
X138403333Y-55632380D01*
X138479523Y-55670476D01*
X137298571Y-55441904D02*
X137679523Y-55441904D01*
X137717619Y-55822857D01*
X137679523Y-55784761D01*
X137603333Y-55746666D01*
X137412857Y-55746666D01*
X137336666Y-55784761D01*
X137298571Y-55822857D01*
X137260476Y-55899047D01*
X137260476Y-56089523D01*
X137298571Y-56165714D01*
X137336666Y-56203809D01*
X137412857Y-56241904D01*
X137603333Y-56241904D01*
X137679523Y-56203809D01*
X137717619Y-56165714D01*
X139241428Y-61321904D02*
X139241428Y-60521904D01*
X138936666Y-60521904D01*
X138860476Y-60560000D01*
X138822380Y-60598095D01*
X138784285Y-60674285D01*
X138784285Y-60788571D01*
X138822380Y-60864761D01*
X138860476Y-60902857D01*
X138936666Y-60940952D01*
X139241428Y-60940952D01*
X138022380Y-61321904D02*
X138479523Y-61321904D01*
X138250952Y-61321904D02*
X138250952Y-60521904D01*
X138327142Y-60636190D01*
X138403333Y-60712380D01*
X138479523Y-60750476D01*
X137336666Y-60521904D02*
X137489047Y-60521904D01*
X137565238Y-60560000D01*
X137603333Y-60598095D01*
X137679523Y-60712380D01*
X137717619Y-60864761D01*
X137717619Y-61169523D01*
X137679523Y-61245714D01*
X137641428Y-61283809D01*
X137565238Y-61321904D01*
X137412857Y-61321904D01*
X137336666Y-61283809D01*
X137298571Y-61245714D01*
X137260476Y-61169523D01*
X137260476Y-60979047D01*
X137298571Y-60902857D01*
X137336666Y-60864761D01*
X137412857Y-60826666D01*
X137565238Y-60826666D01*
X137641428Y-60864761D01*
X137679523Y-60902857D01*
X137717619Y-60979047D01*
X139241428Y-46081904D02*
X139241428Y-45281904D01*
X138936666Y-45281904D01*
X138860476Y-45320000D01*
X138822380Y-45358095D01*
X138784285Y-45434285D01*
X138784285Y-45548571D01*
X138822380Y-45624761D01*
X138860476Y-45662857D01*
X138936666Y-45700952D01*
X139241428Y-45700952D01*
X138479523Y-45358095D02*
X138441428Y-45320000D01*
X138365238Y-45281904D01*
X138174761Y-45281904D01*
X138098571Y-45320000D01*
X138060476Y-45358095D01*
X138022380Y-45434285D01*
X138022380Y-45510476D01*
X138060476Y-45624761D01*
X138517619Y-46081904D01*
X138022380Y-46081904D01*
X137260476Y-46081904D02*
X137717619Y-46081904D01*
X137489047Y-46081904D02*
X137489047Y-45281904D01*
X137565238Y-45396190D01*
X137641428Y-45472380D01*
X137717619Y-45510476D01*
X139241428Y-63861904D02*
X139241428Y-63061904D01*
X138936666Y-63061904D01*
X138860476Y-63100000D01*
X138822380Y-63138095D01*
X138784285Y-63214285D01*
X138784285Y-63328571D01*
X138822380Y-63404761D01*
X138860476Y-63442857D01*
X138936666Y-63480952D01*
X139241428Y-63480952D01*
X138022380Y-63861904D02*
X138479523Y-63861904D01*
X138250952Y-63861904D02*
X138250952Y-63061904D01*
X138327142Y-63176190D01*
X138403333Y-63252380D01*
X138479523Y-63290476D01*
X137527142Y-63061904D02*
X137450952Y-63061904D01*
X137374761Y-63100000D01*
X137336666Y-63138095D01*
X137298571Y-63214285D01*
X137260476Y-63366666D01*
X137260476Y-63557142D01*
X137298571Y-63709523D01*
X137336666Y-63785714D01*
X137374761Y-63823809D01*
X137450952Y-63861904D01*
X137527142Y-63861904D01*
X137603333Y-63823809D01*
X137641428Y-63785714D01*
X137679523Y-63709523D01*
X137717619Y-63557142D01*
X137717619Y-63366666D01*
X137679523Y-63214285D01*
X137641428Y-63138095D01*
X137603333Y-63100000D01*
X137527142Y-63061904D01*
X138879523Y-37700000D02*
X138955714Y-37661904D01*
X139070000Y-37661904D01*
X139184285Y-37700000D01*
X139260476Y-37776190D01*
X139298571Y-37852380D01*
X139336666Y-38004761D01*
X139336666Y-38119047D01*
X139298571Y-38271428D01*
X139260476Y-38347619D01*
X139184285Y-38423809D01*
X139070000Y-38461904D01*
X138993809Y-38461904D01*
X138879523Y-38423809D01*
X138841428Y-38385714D01*
X138841428Y-38119047D01*
X138993809Y-38119047D01*
X138498571Y-38461904D02*
X138498571Y-37661904D01*
X138041428Y-38461904D01*
X138041428Y-37661904D01*
X137660476Y-38461904D02*
X137660476Y-37661904D01*
X137470000Y-37661904D01*
X137355714Y-37700000D01*
X137279523Y-37776190D01*
X137241428Y-37852380D01*
X137203333Y-38004761D01*
X137203333Y-38119047D01*
X137241428Y-38271428D01*
X137279523Y-38347619D01*
X137355714Y-38423809D01*
X137470000Y-38461904D01*
X137660476Y-38461904D01*
X129641428Y-46081904D02*
X129641428Y-45281904D01*
X129336666Y-45281904D01*
X129260476Y-45320000D01*
X129222380Y-45358095D01*
X129184285Y-45434285D01*
X129184285Y-45548571D01*
X129222380Y-45624761D01*
X129260476Y-45662857D01*
X129336666Y-45700952D01*
X129641428Y-45700952D01*
X128689047Y-45281904D02*
X128612857Y-45281904D01*
X128536666Y-45320000D01*
X128498571Y-45358095D01*
X128460476Y-45434285D01*
X128422380Y-45586666D01*
X128422380Y-45777142D01*
X128460476Y-45929523D01*
X128498571Y-46005714D01*
X128536666Y-46043809D01*
X128612857Y-46081904D01*
X128689047Y-46081904D01*
X128765238Y-46043809D01*
X128803333Y-46005714D01*
X128841428Y-45929523D01*
X128879523Y-45777142D01*
X128879523Y-45586666D01*
X128841428Y-45434285D01*
X128803333Y-45358095D01*
X128765238Y-45320000D01*
X128689047Y-45281904D01*
X128117619Y-45358095D02*
X128079523Y-45320000D01*
X128003333Y-45281904D01*
X127812857Y-45281904D01*
X127736666Y-45320000D01*
X127698571Y-45358095D01*
X127660476Y-45434285D01*
X127660476Y-45510476D01*
X127698571Y-45624761D01*
X128155714Y-46081904D01*
X127660476Y-46081904D01*
X129641428Y-58781904D02*
X129641428Y-57981904D01*
X129336666Y-57981904D01*
X129260476Y-58020000D01*
X129222380Y-58058095D01*
X129184285Y-58134285D01*
X129184285Y-58248571D01*
X129222380Y-58324761D01*
X129260476Y-58362857D01*
X129336666Y-58400952D01*
X129641428Y-58400952D01*
X128689047Y-57981904D02*
X128612857Y-57981904D01*
X128536666Y-58020000D01*
X128498571Y-58058095D01*
X128460476Y-58134285D01*
X128422380Y-58286666D01*
X128422380Y-58477142D01*
X128460476Y-58629523D01*
X128498571Y-58705714D01*
X128536666Y-58743809D01*
X128612857Y-58781904D01*
X128689047Y-58781904D01*
X128765238Y-58743809D01*
X128803333Y-58705714D01*
X128841428Y-58629523D01*
X128879523Y-58477142D01*
X128879523Y-58286666D01*
X128841428Y-58134285D01*
X128803333Y-58058095D01*
X128765238Y-58020000D01*
X128689047Y-57981904D01*
X128155714Y-57981904D02*
X127622380Y-57981904D01*
X127965238Y-58781904D01*
X139241428Y-48621904D02*
X139241428Y-47821904D01*
X138936666Y-47821904D01*
X138860476Y-47860000D01*
X138822380Y-47898095D01*
X138784285Y-47974285D01*
X138784285Y-48088571D01*
X138822380Y-48164761D01*
X138860476Y-48202857D01*
X138936666Y-48240952D01*
X139241428Y-48240952D01*
X138479523Y-47898095D02*
X138441428Y-47860000D01*
X138365238Y-47821904D01*
X138174761Y-47821904D01*
X138098571Y-47860000D01*
X138060476Y-47898095D01*
X138022380Y-47974285D01*
X138022380Y-48050476D01*
X138060476Y-48164761D01*
X138517619Y-48621904D01*
X138022380Y-48621904D01*
X137527142Y-47821904D02*
X137450952Y-47821904D01*
X137374761Y-47860000D01*
X137336666Y-47898095D01*
X137298571Y-47974285D01*
X137260476Y-48126666D01*
X137260476Y-48317142D01*
X137298571Y-48469523D01*
X137336666Y-48545714D01*
X137374761Y-48583809D01*
X137450952Y-48621904D01*
X137527142Y-48621904D01*
X137603333Y-48583809D01*
X137641428Y-48545714D01*
X137679523Y-48469523D01*
X137717619Y-48317142D01*
X137717619Y-48126666D01*
X137679523Y-47974285D01*
X137641428Y-47898095D01*
X137603333Y-47860000D01*
X137527142Y-47821904D01*
X129641428Y-35921904D02*
X129641428Y-35121904D01*
X129336666Y-35121904D01*
X129260476Y-35160000D01*
X129222380Y-35198095D01*
X129184285Y-35274285D01*
X129184285Y-35388571D01*
X129222380Y-35464761D01*
X129260476Y-35502857D01*
X129336666Y-35540952D01*
X129641428Y-35540952D01*
X128689047Y-35121904D02*
X128612857Y-35121904D01*
X128536666Y-35160000D01*
X128498571Y-35198095D01*
X128460476Y-35274285D01*
X128422380Y-35426666D01*
X128422380Y-35617142D01*
X128460476Y-35769523D01*
X128498571Y-35845714D01*
X128536666Y-35883809D01*
X128612857Y-35921904D01*
X128689047Y-35921904D01*
X128765238Y-35883809D01*
X128803333Y-35845714D01*
X128841428Y-35769523D01*
X128879523Y-35617142D01*
X128879523Y-35426666D01*
X128841428Y-35274285D01*
X128803333Y-35198095D01*
X128765238Y-35160000D01*
X128689047Y-35121904D01*
X127660476Y-35921904D02*
X128117619Y-35921904D01*
X127889047Y-35921904D02*
X127889047Y-35121904D01*
X127965238Y-35236190D01*
X128041428Y-35312380D01*
X128117619Y-35350476D01*
X139241428Y-58781904D02*
X139241428Y-57981904D01*
X138936666Y-57981904D01*
X138860476Y-58020000D01*
X138822380Y-58058095D01*
X138784285Y-58134285D01*
X138784285Y-58248571D01*
X138822380Y-58324761D01*
X138860476Y-58362857D01*
X138936666Y-58400952D01*
X139241428Y-58400952D01*
X138022380Y-58781904D02*
X138479523Y-58781904D01*
X138250952Y-58781904D02*
X138250952Y-57981904D01*
X138327142Y-58096190D01*
X138403333Y-58172380D01*
X138479523Y-58210476D01*
X137336666Y-58248571D02*
X137336666Y-58781904D01*
X137527142Y-57943809D02*
X137717619Y-58515238D01*
X137222380Y-58515238D01*
X138708095Y-32962857D02*
X138593809Y-33000952D01*
X138555714Y-33039047D01*
X138517619Y-33115238D01*
X138517619Y-33229523D01*
X138555714Y-33305714D01*
X138593809Y-33343809D01*
X138670000Y-33381904D01*
X138974761Y-33381904D01*
X138974761Y-32581904D01*
X138708095Y-32581904D01*
X138631904Y-32620000D01*
X138593809Y-32658095D01*
X138555714Y-32734285D01*
X138555714Y-32810476D01*
X138593809Y-32886666D01*
X138631904Y-32924761D01*
X138708095Y-32962857D01*
X138974761Y-32962857D01*
X138174761Y-33077142D02*
X137565238Y-33077142D01*
X137870000Y-33381904D02*
X137870000Y-32772380D01*
X139241428Y-53701904D02*
X139241428Y-52901904D01*
X138936666Y-52901904D01*
X138860476Y-52940000D01*
X138822380Y-52978095D01*
X138784285Y-53054285D01*
X138784285Y-53168571D01*
X138822380Y-53244761D01*
X138860476Y-53282857D01*
X138936666Y-53320952D01*
X139241428Y-53320952D01*
X138022380Y-53701904D02*
X138479523Y-53701904D01*
X138250952Y-53701904D02*
X138250952Y-52901904D01*
X138327142Y-53016190D01*
X138403333Y-53092380D01*
X138479523Y-53130476D01*
X137565238Y-53244761D02*
X137641428Y-53206666D01*
X137679523Y-53168571D01*
X137717619Y-53092380D01*
X137717619Y-53054285D01*
X137679523Y-52978095D01*
X137641428Y-52940000D01*
X137565238Y-52901904D01*
X137412857Y-52901904D01*
X137336666Y-52940000D01*
X137298571Y-52978095D01*
X137260476Y-53054285D01*
X137260476Y-53092380D01*
X137298571Y-53168571D01*
X137336666Y-53206666D01*
X137412857Y-53244761D01*
X137565238Y-53244761D01*
X137641428Y-53282857D01*
X137679523Y-53320952D01*
X137717619Y-53397142D01*
X137717619Y-53549523D01*
X137679523Y-53625714D01*
X137641428Y-53663809D01*
X137565238Y-53701904D01*
X137412857Y-53701904D01*
X137336666Y-53663809D01*
X137298571Y-53625714D01*
X137260476Y-53549523D01*
X137260476Y-53397142D01*
X137298571Y-53320952D01*
X137336666Y-53282857D01*
X137412857Y-53244761D01*
X129108095Y-32962857D02*
X128993809Y-33000952D01*
X128955714Y-33039047D01*
X128917619Y-33115238D01*
X128917619Y-33229523D01*
X128955714Y-33305714D01*
X128993809Y-33343809D01*
X129070000Y-33381904D01*
X129374761Y-33381904D01*
X129374761Y-32581904D01*
X129108095Y-32581904D01*
X129031904Y-32620000D01*
X128993809Y-32658095D01*
X128955714Y-32734285D01*
X128955714Y-32810476D01*
X128993809Y-32886666D01*
X129031904Y-32924761D01*
X129108095Y-32962857D01*
X129374761Y-32962857D01*
X128574761Y-33077142D02*
X127965238Y-33077142D01*
%TO.C,PAD2*%
X134658095Y-53472857D02*
X134543809Y-53510952D01*
X134505714Y-53549047D01*
X134467619Y-53625238D01*
X134467619Y-53739523D01*
X134505714Y-53815714D01*
X134543809Y-53853809D01*
X134620000Y-53891904D01*
X134924761Y-53891904D01*
X134924761Y-53091904D01*
X134658095Y-53091904D01*
X134581904Y-53130000D01*
X134543809Y-53168095D01*
X134505714Y-53244285D01*
X134505714Y-53320476D01*
X134543809Y-53396666D01*
X134581904Y-53434761D01*
X134658095Y-53472857D01*
X134924761Y-53472857D01*
X134124761Y-53587142D02*
X133515238Y-53587142D01*
D11*
%TO.C,D14*%
X113120000Y-60530000D02*
X113120000Y-59980000D01*
X113720000Y-60130000D02*
X113720000Y-60930000D01*
X113720000Y-60930000D02*
X113120000Y-60530000D01*
X113720000Y-60530000D02*
X114220000Y-60530000D01*
X113120000Y-60530000D02*
X113720000Y-60130000D01*
X112720000Y-60530000D02*
X113120000Y-60530000D01*
X113120000Y-60530000D02*
X113120000Y-61080000D01*
%TO.C,D17*%
X120417449Y-100941937D02*
X120788323Y-101091780D01*
X120788323Y-101091780D02*
X121494476Y-100945670D01*
X121494476Y-100945670D02*
X121194790Y-101687417D01*
X121194790Y-101687417D02*
X120788323Y-101091780D01*
X121344633Y-101316544D02*
X121808225Y-101503847D01*
X120788323Y-101091780D02*
X120582289Y-101601731D01*
X120788323Y-101091780D02*
X120994356Y-100581829D01*
%TO.C,D15*%
X113120000Y-43530000D02*
X113120000Y-42980000D01*
X113720000Y-43130000D02*
X113720000Y-43930000D01*
X113720000Y-43530000D02*
X114220000Y-43530000D01*
X113120000Y-43530000D02*
X113120000Y-44080000D01*
X113720000Y-43930000D02*
X113120000Y-43530000D01*
X113120000Y-43530000D02*
X113720000Y-43130000D01*
X112720000Y-43530000D02*
X113120000Y-43530000D01*
%TO.C,D18*%
X138492717Y-112098214D02*
X137936991Y-112673686D01*
X137783250Y-111969155D02*
X137401188Y-112364791D01*
X137495514Y-111691291D02*
X137783250Y-111969155D01*
X138214854Y-112385950D02*
X138574524Y-112733279D01*
X137936991Y-112673686D02*
X137783250Y-111969155D01*
X137783250Y-111969155D02*
X138492717Y-112098214D01*
X137783250Y-111969155D02*
X138165312Y-111573518D01*
%TO.C,D1*%
X39278834Y-87957909D02*
X39250049Y-87408662D01*
X39878011Y-87926507D02*
X40377326Y-87900339D01*
X39898946Y-88325959D02*
X39278834Y-87957909D01*
X38879382Y-87978843D02*
X39278834Y-87957909D01*
X39857077Y-87527055D02*
X39898946Y-88325959D01*
X39278834Y-87957909D02*
X39307618Y-88507155D01*
X39278834Y-87957909D02*
X39857077Y-87527055D01*
%TO.C,D16*%
X101120000Y-96530000D02*
X101720000Y-96130000D01*
X100720000Y-96530000D02*
X101120000Y-96530000D01*
X101720000Y-96530000D02*
X102220000Y-96530000D01*
X101720000Y-96930000D02*
X101120000Y-96530000D01*
X101120000Y-96530000D02*
X101120000Y-97080000D01*
X101720000Y-96130000D02*
X101720000Y-96930000D01*
X101120000Y-96530000D02*
X101120000Y-95980000D01*
%TO.C,D3*%
X38119523Y-54372554D02*
X37499411Y-54004504D01*
X38077654Y-53573650D02*
X38119523Y-54372554D01*
X37499411Y-54004504D02*
X38077654Y-53573650D01*
X37499411Y-54004504D02*
X37470626Y-53455257D01*
X37099959Y-54025438D02*
X37499411Y-54004504D01*
X37499411Y-54004504D02*
X37528195Y-54553750D01*
X38098588Y-53973102D02*
X38597903Y-53946934D01*
%TO.C,D6*%
X58720000Y-40530000D02*
X59120000Y-40530000D01*
X59720000Y-40930000D02*
X59120000Y-40530000D01*
X59120000Y-40530000D02*
X59720000Y-40130000D01*
X59720000Y-40530000D02*
X60220000Y-40530000D01*
X59720000Y-40130000D02*
X59720000Y-40930000D01*
X59120000Y-40530000D02*
X59120000Y-41080000D01*
X59120000Y-40530000D02*
X59120000Y-39980000D01*
%TO.C,D9*%
X77120000Y-37530000D02*
X77120000Y-38080000D01*
X77720000Y-37930000D02*
X77120000Y-37530000D01*
X76720000Y-37530000D02*
X77120000Y-37530000D01*
X77720000Y-37130000D02*
X77720000Y-37930000D01*
X77120000Y-37530000D02*
X77120000Y-36980000D01*
X77120000Y-37530000D02*
X77720000Y-37130000D01*
X77720000Y-37530000D02*
X78220000Y-37530000D01*
%TO.C,D2*%
X38389123Y-70981207D02*
X38417907Y-71530453D01*
X37989671Y-71002141D02*
X38389123Y-70981207D01*
X39009235Y-71349257D02*
X38389123Y-70981207D01*
X38389123Y-70981207D02*
X38360338Y-70431960D01*
X38988300Y-70949805D02*
X39487615Y-70923637D01*
X38967366Y-70550353D02*
X39009235Y-71349257D01*
X38389123Y-70981207D02*
X38967366Y-70550353D01*
D10*
%TO.C,MCU1*%
X142360000Y-31750000D02*
X124580000Y-31750000D01*
X139820000Y-34290000D02*
X142360000Y-34290000D01*
X139820000Y-36830000D02*
X142360000Y-36830000D01*
X124580000Y-31750000D02*
X124580000Y-64770000D01*
X139820000Y-34290000D02*
X139820000Y-36830000D01*
X142360000Y-64770000D02*
X142360000Y-31750000D01*
X124580000Y-64770000D02*
X142360000Y-64770000D01*
%TO.C,T2*%
X144820000Y-69230000D02*
X141970000Y-69230000D01*
X144820000Y-72530000D02*
X144820000Y-69230000D01*
X141970000Y-75830000D02*
X144820000Y-75830000D01*
X144820000Y-74480000D02*
X144820000Y-70580000D01*
X141970000Y-69230000D02*
X141970000Y-75830000D01*
X144820000Y-72530000D02*
X144820000Y-75830000D01*
D11*
%TO.C,D12*%
X94720000Y-41530000D02*
X95120000Y-41530000D01*
X95720000Y-41530000D02*
X96220000Y-41530000D01*
X95120000Y-41530000D02*
X95720000Y-41130000D01*
X95720000Y-41930000D02*
X95120000Y-41530000D01*
X95120000Y-41530000D02*
X95120000Y-40980000D01*
X95720000Y-41130000D02*
X95720000Y-41930000D01*
X95120000Y-41530000D02*
X95120000Y-42080000D01*
%TO.C,D8*%
X77120000Y-54530000D02*
X77120000Y-53980000D01*
X77120000Y-54530000D02*
X77120000Y-55080000D01*
X77120000Y-54530000D02*
X77720000Y-54130000D01*
X77720000Y-54530000D02*
X78220000Y-54530000D01*
X77720000Y-54930000D02*
X77120000Y-54530000D01*
X76720000Y-54530000D02*
X77120000Y-54530000D01*
X77720000Y-54130000D02*
X77720000Y-54930000D01*
%TO.C,D13*%
X113120000Y-77530000D02*
X113120000Y-76980000D01*
X113120000Y-77530000D02*
X113120000Y-78080000D01*
X113720000Y-77530000D02*
X114220000Y-77530000D01*
X112720000Y-77530000D02*
X113120000Y-77530000D01*
X113120000Y-77530000D02*
X113720000Y-77130000D01*
X113720000Y-77930000D02*
X113120000Y-77530000D01*
X113720000Y-77130000D02*
X113720000Y-77930000D01*
%TO.C,D10*%
X95720000Y-75130000D02*
X95720000Y-75930000D01*
X95720000Y-75530000D02*
X96220000Y-75530000D01*
X95720000Y-75930000D02*
X95120000Y-75530000D01*
X95120000Y-75530000D02*
X95120000Y-76080000D01*
X94720000Y-75530000D02*
X95120000Y-75530000D01*
X95120000Y-75530000D02*
X95720000Y-75130000D01*
X95120000Y-75530000D02*
X95120000Y-74980000D01*
%TO.C,D5*%
X59120000Y-57530000D02*
X59720000Y-57130000D01*
X59120000Y-57530000D02*
X59120000Y-56980000D01*
X59720000Y-57130000D02*
X59720000Y-57930000D01*
X58720000Y-57530000D02*
X59120000Y-57530000D01*
X59120000Y-57530000D02*
X59120000Y-58080000D01*
X59720000Y-57530000D02*
X60220000Y-57530000D01*
X59720000Y-57930000D02*
X59120000Y-57530000D01*
%TO.C,D7*%
X77720000Y-71930000D02*
X77120000Y-71530000D01*
X76720000Y-71530000D02*
X77120000Y-71530000D01*
X77120000Y-71530000D02*
X77720000Y-71130000D01*
X77120000Y-71530000D02*
X77120000Y-70980000D01*
X77120000Y-71530000D02*
X77120000Y-72080000D01*
X77720000Y-71530000D02*
X78220000Y-71530000D01*
X77720000Y-71130000D02*
X77720000Y-71930000D01*
%TO.C,D11*%
X95120000Y-58530000D02*
X95720000Y-58130000D01*
X94720000Y-58530000D02*
X95120000Y-58530000D01*
X95720000Y-58530000D02*
X96220000Y-58530000D01*
X95720000Y-58130000D02*
X95720000Y-58930000D01*
X95120000Y-58530000D02*
X95120000Y-59080000D01*
X95120000Y-58530000D02*
X95120000Y-57980000D01*
X95720000Y-58930000D02*
X95120000Y-58530000D01*
%TO.C,D4*%
X59720000Y-74530000D02*
X60220000Y-74530000D01*
X59120000Y-74530000D02*
X59120000Y-73980000D01*
X59120000Y-74530000D02*
X59120000Y-75080000D01*
X59720000Y-74930000D02*
X59120000Y-74530000D01*
X59720000Y-74130000D02*
X59720000Y-74930000D01*
X58720000Y-74530000D02*
X59120000Y-74530000D01*
X59120000Y-74530000D02*
X59720000Y-74130000D01*
%TD*%
D12*
%TO.C,MCU2*%
X128350000Y-36810000D03*
D13*
X128350000Y-39350000D03*
X128350000Y-41890000D03*
X128350000Y-44430000D03*
X128350000Y-46970000D03*
X128350000Y-49510000D03*
X128350000Y-52050000D03*
X128350000Y-54590000D03*
X128350000Y-57130000D03*
X128350000Y-59670000D03*
X128350000Y-62210000D03*
X128350000Y-64750000D03*
X143590000Y-36810000D03*
X143590000Y-39350000D03*
X143590000Y-41890000D03*
X143590000Y-44430000D03*
X143590000Y-46970000D03*
X143590000Y-49510000D03*
X143590000Y-52050000D03*
X143590000Y-54590000D03*
X143590000Y-57130000D03*
X143590000Y-59670000D03*
X143590000Y-62210000D03*
X143590000Y-64750000D03*
D14*
X143590000Y-34270000D03*
X128350000Y-34270000D03*
%TD*%
%TO.C,MCU1*%
X141090000Y-33020000D03*
X125850000Y-33020000D03*
D13*
X125850000Y-63500000D03*
X125850000Y-60960000D03*
X125850000Y-58420000D03*
X125850000Y-55880000D03*
X125850000Y-53340000D03*
X125850000Y-50800000D03*
X125850000Y-48260000D03*
X125850000Y-45720000D03*
X125850000Y-43180000D03*
X125850000Y-40640000D03*
X125850000Y-38100000D03*
X125850000Y-35560000D03*
X141090000Y-63500000D03*
X141090000Y-60960000D03*
X141090000Y-58420000D03*
X141090000Y-55880000D03*
X141090000Y-53340000D03*
X141090000Y-50800000D03*
X141090000Y-48260000D03*
X141090000Y-45720000D03*
X141090000Y-43180000D03*
X141090000Y-40640000D03*
X141090000Y-38100000D03*
D12*
X141090000Y-35560000D03*
%TD*%
M02*
